<?xml version="1.0" encoding="utf-8"?>
<!-- Generator: Adobe Illustrator 18.0.0, SVG Export Plug-In . SVG Version: 6.00 Build 0)  -->
<!DOCTYPE svg PUBLIC "-//W3C//DTD SVG 1.1//EN" "http://www.w3.org/Graphics/SVG/1.1/DTD/svg11.dtd">
<svg version="1.1" id="Layer_1" xmlns="http://www.w3.org/2000/svg" xmlns:xlink="http://www.w3.org/1999/xlink" x="0px" y="0px"
	 viewBox="0 0 1400 1400" style="enable-background:new 0 0 1400 1400;" xml:space="preserve">
<style type="text/css">
	.st0{fill:url(#SVGID_1_);}
	.st1{opacity:0.81;}
	.st2{fill:#CFCFCF;}
	.st3{fill:#3A559F;}
	.st4{fill:#FFFFFF;}
	.st5{opacity:0.7;fill:#FFFFFF;}
	.st6{fill:#CC001E;}
	.st7{fill:#12BC18;}
	.st8{fill:#00AFF0;}
	.st9{fill:#E80000;}
	.st10{fill:url(#SVGID_2_);}
	.st11{fill:#0487BA;}
	.st12{fill:#EA2F2A;}
	.st13{fill:#FFE000;}
	.st14{fill:#314358;}
	.st15{fill:#2DC100;}
	.st16{fill:#FF5722;}
	.st17{fill:#FDFEFF;}
	.st18{fill:#0063DB;}
	.st19{fill:#FF0082;}
	.st20{fill:#00AEEF;}
	.st21{fill:#F2F2F2;}
	.st22{fill:#0083FF;}
	.st23{fill:#FEFEFE;}
	.st24{fill:#0084FE;}
	.st25{fill:#FF4F00;}
</style>
<linearGradient id="SVGID_1_" gradientUnits="userSpaceOnUse" x1="37.4132" y1="30.1639" x2="1408.5503" y2="1416.3025">
	<stop  offset="0.1337" style="stop-color:#F7F7F7"/>
	<stop  offset="0.984" style="stop-color:#E6E6E6"/>
</linearGradient>
<rect y="0" class="st0" width="1400" height="1400"/>
<g class="st1">
	<path class="st2" d="M345.6,143.4H185c-22.3,0-40.3,18.1-40.3,40.3v160.6c0,22.3,18.1,40.3,40.3,40.3h160.6
		c22.3,0,40.3-18.1,40.3-40.3V183.7C385.9,161.4,367.9,143.4,345.6,143.4z"/>
	<path class="st2" d="M648.4,143.4H487.8c-22.3,0-40.3,18.1-40.3,40.3v160.6c0,22.3,18.1,40.3,40.3,40.3h160.6
		c22.3,0,40.3-18.1,40.3-40.3V183.7C688.7,161.4,670.7,143.4,648.4,143.4z"/>
	<path class="st2" d="M951.2,143.4H790.6c-22.3,0-40.3,18.1-40.3,40.3v160.6c0,22.3,18.1,40.3,40.3,40.3h160.6
		c22.3,0,40.3-18.1,40.3-40.3V183.7C991.6,161.4,973.5,143.4,951.2,143.4z"/>
	<path class="st2" d="M648.4,447H487.8c-22.3,0-40.3,18.1-40.3,40.3V648c0,22.3,18.1,40.3,40.3,40.3h160.6
		c22.3,0,40.3-18.1,40.3-40.3V487.4C688.7,465.1,670.7,447,648.4,447z"/>
	<path class="st2" d="M951.2,447H790.6c-22.3,0-40.3,18.1-40.3,40.3V648c0,22.3,18.1,40.3,40.3,40.3h160.6
		c22.3,0,40.3-18.1,40.3-40.3V487.4C991.6,465.1,973.5,447,951.2,447z"/>
	<path class="st2" d="M345.6,447H185c-22.3,0-40.3,18.1-40.3,40.3V648c0,22.3,18.1,40.3,40.3,40.3h160.6c22.3,0,40.3-18.1,40.3-40.3
		V487.4C385.9,465.1,367.9,447,345.6,447z"/>
	<path class="st2" d="M1254,143.4h-160.6c-22.3,0-40.3,18.1-40.3,40.3v160.6c0,22.3,18.1,40.3,40.3,40.3H1254
		c22.3,0,40.3-18.1,40.3-40.3V183.7C1294.4,161.4,1276.3,143.4,1254,143.4z"/>
	<path class="st2" d="M648.4,750.7H487.8c-22.3,0-40.3,18.1-40.3,40.3v160.6c0,22.3,18.1,40.3,40.3,40.3h160.6
		c22.3,0,40.3-18.1,40.3-40.3V791C688.7,768.7,670.7,750.7,648.4,750.7z"/>
	<path class="st2" d="M1254,447h-160.6c-22.3,0-40.3,18.1-40.3,40.3V648c0,22.3,18.1,40.3,40.3,40.3H1254
		c22.3,0,40.3-18.1,40.3-40.3V487.4C1294.4,465.1,1276.3,447,1254,447z"/>
	<path class="st2" d="M345.6,750.7H185c-22.3,0-40.3,18.1-40.3,40.3v160.6c0,22.3,18.1,40.3,40.3,40.3h160.6
		c22.3,0,40.3-18.1,40.3-40.3V791C385.9,768.7,367.9,750.7,345.6,750.7z"/>
	<path class="st2" d="M1254,1054.3h-160.6c-22.3,0-40.3,18.1-40.3,40.3v160.6c0,22.3,18.1,40.3,40.3,40.3H1254
		c22.3,0,40.3-18.1,40.3-40.3v-160.6C1294.4,1072.4,1276.3,1054.3,1254,1054.3z"/>
	<path class="st2" d="M1254,750.7h-160.6c-22.3,0-40.3,18.1-40.3,40.3v160.6c0,22.3,18.1,40.3,40.3,40.3H1254
		c22.3,0,40.3-18.1,40.3-40.3V791C1294.4,768.7,1276.3,750.7,1254,750.7z"/>
	<path class="st2" d="M951.2,1054.3H790.6c-22.3,0-40.3,18.1-40.3,40.3v160.6c0,22.3,18.1,40.3,40.3,40.3h160.6
		c22.3,0,40.3-18.1,40.3-40.3v-160.6C991.6,1072.4,973.5,1054.3,951.2,1054.3z"/>
	<path class="st2" d="M345.6,1054.3H185c-22.3,0-40.3,18.1-40.3,40.3v160.6c0,22.3,18.1,40.3,40.3,40.3h160.6
		c22.3,0,40.3-18.1,40.3-40.3v-160.6C385.9,1072.4,367.9,1054.3,345.6,1054.3z"/>
	<path class="st2" d="M951.2,750.7H790.6c-22.3,0-40.3,18.1-40.3,40.3v160.6c0,22.3,18.1,40.3,40.3,40.3h160.6
		c22.3,0,40.3-18.1,40.3-40.3V791C991.6,768.7,973.5,750.7,951.2,750.7z"/>
	<path class="st2" d="M648.4,1054.3H487.8c-22.3,0-40.3,18.1-40.3,40.3v160.6c0,22.3,18.1,40.3,40.3,40.3h160.6
		c22.3,0,40.3-18.1,40.3-40.3v-160.6C688.7,1072.4,670.7,1054.3,648.4,1054.3z"/>
</g>
<g>
	<g>
		<path class="st3" d="M326.1,365.2H165.5c-22.3,0-40.3-18.1-40.3-40.3V164.2c0-22.3,18.1-40.3,40.3-40.3h160.6
			c22.3,0,40.3,18.1,40.3,40.3v160.6C366.4,347.1,348.4,365.2,326.1,365.2z"/>
		<g>
			<g>
				<path class="st4" d="M209.6,249.8c5-0.1,10,0.2,15-0.1c4-0.3,4.9,1.3,4.8,5c-0.2,7.4,0,14.7-0.1,22.1c-0.1,12.3-0.1,33.7-0.2,46
					h29.2v-73.1h22.9c1.2-9.7,2.4-18.9,3.7-28.7c-8.2,0-15.6-0.1-22.9,0c-2.7,0.1-3.8-0.7-3.7-3.6c0.2-5,0-10,0.1-15
					c0.1-6.4,3.5-9.7,9.8-9.8c4.6-0.1,9.2-0.1,13.8,0c2.5,0.1,3.5-0.8,3.5-3.4c-0.1-6.5-0.2-12.9,0-19.4c0.1-2.9-1-3.6-3.7-3.6
					c-7,0.1-14-0.1-20.9,0.1c-15.1,0.3-27.5,10.1-30.6,24.8c-1.2,5.8-0.7,12-0.9,18.1c-0.1,3.8,0,7.5,0,11.6c-7,0-13.4,0.1-19.8,0
					c-2.6,0-3.5,0.9-3.5,3.5c0.1,7.4,0.1,14.8,0,22.1C206,249.3,207.2,249.8,209.6,249.8z"/>
			</g>
		</g>
		<path class="st5" d="M139.6,247c0,0-0.1-0.7-0.2-2.1c-0.1-1.4-0.3-3.4-0.4-6c-0.2-2.6-0.4-5.7-0.6-9.4c-0.2-3.6-0.5-7.7-0.7-12.1
			c-0.2-4.4-0.5-9.3-0.8-14.4c-0.2-5.1-0.5-10.5-0.7-16c-0.1-2.8-0.2-5.6-0.3-8.5c-0.1-1.4-0.1-2.9-0.2-4.3l0-0.3l0-0.5l0-0.5l0-1.1
			l0-1.1c0-0.4,0-0.7,0.1-1.2l0.3-2.6c0.1-0.4,0.1-0.9,0.2-1.3l0.3-1.2l0.5-2.4l0.8-2.4c0.5-1.6,1.2-3.1,1.9-4.6
			c0.4-0.8,0.8-1.5,1.2-2.2c0.4-0.7,0.8-1.5,1.3-2.2c3.8-5.6,8.9-10.3,15-13.1c0.8-0.4,1.5-0.7,2.3-1.1c0.8-0.3,1.6-0.6,2.3-0.8
			l1.2-0.4c0.4-0.1,0.8-0.2,1.2-0.3c0.8-0.2,1.6-0.4,2.4-0.6c0.8-0.2,1.6-0.2,2.4-0.4c0.8-0.1,1.6-0.2,2.4-0.3c0.8,0,1.6,0,2.4-0.1
			c0.8,0,1.6,0,2.3,0c5.6,0.2,10.9,0.4,16,0.7c5.1,0.3,9.9,0.6,14.4,0.9c4.4,0.3,8.5,0.7,12.1,1c3.6,0.3,6.8,0.7,9.4,1
			c5.2,0.6,8.2,1,8.2,1s-3,0.4-8.2,1c-2.6,0.3-5.7,0.6-9.4,1c-3.6,0.3-7.7,0.7-12.1,1c-4.4,0.4-9.3,0.6-14.4,0.9
			c-5.1,0.3-10.5,0.5-16,0.7c-0.7,0-1.3,0.1-1.9,0.1c-0.6,0-1.2,0.1-1.8,0.1c-0.6,0.1-1.2,0.2-1.8,0.3c-0.6,0.1-1.2,0.2-1.8,0.4
			c-1.2,0.4-2.4,0.6-3.5,1.1l-1.7,0.7l-1.7,0.8c-4.5,2.2-8.5,5.6-11.6,9.6c-0.4,0.5-0.7,1-1.1,1.6c-0.3,0.5-0.7,1.1-1,1.6
			c-0.6,1.2-1.3,2.2-1.7,3.5l-0.7,1.8l-0.6,1.9l-0.3,0.9c-0.1,0.3-0.1,0.6-0.2,0.9l-0.4,1.8c-0.1,0.3-0.1,0.6-0.1,1l-0.1,1.1l-0.2,2
			c-0.1,1.4-0.1,2.9-0.2,4.3c-0.1,2.9-0.2,5.7-0.3,8.5c-0.2,5.6-0.5,10.9-0.7,16c-0.3,5.1-0.5,9.9-0.8,14.4
			c-0.3,4.4-0.5,8.5-0.7,12.1c-0.3,3.6-0.5,6.8-0.6,9.4c-0.2,2.6-0.3,4.6-0.4,6C139.7,246.3,139.6,247,139.6,247z"/>
	</g>
	<g>
		<path class="st6" d="M628.9,365.2H468.3c-22.3,0-40.3-18.1-40.3-40.3V164.2c0-22.3,18.1-40.3,40.3-40.3h160.6
			c22.3,0,40.3,18.1,40.3,40.3v160.6C669.2,347.1,651.2,365.2,628.9,365.2z"/>
		<g>
			<path class="st4" d="M539.4,267.2c-0.5,2-1,4-1.5,5.9c-1.2,4.8-2.5,9.6-3.7,14.5c-1.7,7.1-4.8,13.5-8.7,19.6
				c-2.2,3.4-4.6,6.7-7,10c-0.4,0.5-0.9,1-1.5,0.7c-0.4-0.2-0.8-0.8-0.9-1.3c-1.1-7.5-1.5-14.9-1.1-22.5c0.3-5.5,1.7-10.8,3-16.1
				c3-12.7,6-25.4,9-38.2c0.1-0.5,0-1.1-0.2-1.6c-2.8-7.8-3.3-15.5-0.3-23.3c1.7-4.3,4.4-7.8,8.7-9.8c4.5-2.2,9.9-1.6,13.3,1.5
				c2.5,2.3,3.5,5.3,3.7,8.6c0.3,4-0.6,7.8-1.7,11.6c-1.8,6.3-3.6,12.5-5.4,18.7c-1,3.5-1,6.9,0.8,10.2c2.2,4.1,5.8,6.3,10.3,6.8
				c6.7,0.7,12-2,16.5-6.8c4.4-4.7,7-10.4,8.9-16.4c1.9-6,2.8-12.2,3-18.5c0.2-5.2-0.2-10.4-2.1-15.3c-3.3-8.7-9.4-14.5-18.1-17.4
				c-12.2-4-24.3-3.4-35.7,2.7c-11.2,6.1-17.7,15.8-19.9,28.3c-0.8,4.3-0.9,8.6,0,12.8c0.7,3.9,2.3,7.5,5,10.5
				c1.4,1.6,1.8,3.2,1.2,5.3c-0.6,2-1.1,4.1-1.6,6.1c-0.6,2.5-2.3,3.3-4.6,2.3c-6.3-2.7-10.7-7.4-13.3-13.6
				c-4.5-10.4-4.9-21.1-1.6-31.9c4.8-15.6,14.8-26.8,29.5-33.4c15.5-7,31.6-8.1,47.9-2.9c12.6,4,22.2,11.9,28.7,23.5
				c3.7,6.7,5.6,14,5.6,21.7c0,10.9-1.8,21.3-6.4,31.2c-4.2,9.1-10.3,16.6-19.2,21.6c-7.6,4.3-15.8,6-24.4,4.7
				c-5.3-0.8-10-3-13.8-6.9C540.9,269.2,540.2,268.2,539.4,267.2z"/>
		</g>
	</g>
	<g>
		<path class="st7" d="M931.7,365.2H771.1c-22.3,0-40.3-18.1-40.3-40.3V164.2c0-22.3,18.1-40.3,40.3-40.3h160.6
			c22.3,0,40.3,18.1,40.3,40.3v160.6C972.1,347.1,954,365.2,931.7,365.2z"/>
		<g>
			<g>
				<path class="st4" d="M783.5,313.2c2.2-7,4-12.7,5.8-18.3c1.6-4.9,3.6-9.8,4.9-14.8c0.5-2,0.2-4.6-0.7-6.4
					c-19.2-37.7,0.1-82.8,40.1-94.9c36.8-11.1,75.2,11.1,84,48.6c9,38.3-15.7,73.5-52,81c-12.4,2.6-25.2,2.3-36.8-3.5
					c-7.7-3.9-14.3-1.6-21.4,0.8C800,308.1,792.5,310.3,783.5,313.2z M802.2,294.6c5.5-1.8,10.2-3.1,14.7-4.8
					c3.4-1.3,6.3-1.2,9.7,0.8c11.6,7,24.6,8.1,37.4,5.5c31.5-6.5,49.8-38.5,40.4-69.8c-8.3-27.2-35.5-43.5-64.7-36.5
					c-33,7.9-51,43.8-36.5,74.3c4.9,10.3,3.9,18.1,0.2,27.2C802.9,292.1,802.7,292.9,802.2,294.6z"/>
				<path class="st4" d="M830.9,209.2c4.4,0.2,6.6,2.1,7.8,5.7c1.3,3.8,3.2,7.6,3.9,11.5c0.3,1.9-0.9,4.7-2.4,6.3
					c-3,3.2-3.1,5.9-0.5,9.4c4.8,6.5,10.4,11.9,17.7,15.7c3.2,1.7,5.1,1.2,7-1.4c5.6-8.1,7.6-5.2,13.8-2.2c1.3,0.6,2.5,1.5,3.8,2.2
					c6.1,3.4,6.7,10.7,1.1,15.2c-6.2,5-13,5.9-20.6,3.4c-20.4-6.8-33.8-21-42.1-40.2c-3.2-7.4-2.1-15.2,3.7-21.4
					C825.9,211.4,828.7,210.6,830.9,209.2z"/>
			</g>
		</g>
	</g>
	<g>
		<path class="st8" d="M628.9,668.8H468.3c-22.3,0-40.3-18.1-40.3-40.3V467.9c0-22.3,18.1-40.3,40.3-40.3h160.6
			c22.3,0,40.3,18.1,40.3,40.3v160.6C669.2,650.8,651.2,668.8,628.9,668.8z"/>
		<g>
			<path class="st4" d="M478,593c10.6,1,20.7-0.5,30.3-4.8c4.4-1.9,8.5-4.4,12.2-7.4c-2.4-0.2-4.7-0.5-7-1.1
				c-2.3-0.6-4.5-1.5-6.5-2.7c-2.1-1.2-4-2.6-5.8-4.2c-1.7-1.6-3.2-3.5-4.5-5.5c-1.3-2-2.3-4.2-3.1-6.6c0.3,0,0.6,0,0.8,0.1
				c3.9,0.6,7.7,0.4,11.5-0.5c0.2,0,0.4-0.1,0.6-0.3c-8.8-2.1-15.4-7-19.8-15c-2.3-4.3-3.4-8.8-3.4-13.8c2.1,1.1,4.2,2,6.4,2.6
				c2.2,0.6,4.4,0.9,6.6,0.9c-8.5-6.3-12.9-14.5-12.7-25.1c0.1-4.8,1.4-9.4,3.8-13.7c11.5,13.8,25.8,23.1,43.1,27.8
				c5.5,1.5,11.2,2.4,17,2.6c-0.1-0.5-0.1-0.9-0.2-1.3c-2.9-15.5,7-30.3,21.9-33.6c10.5-2.4,19.7,0.4,27.4,7.9
				c0.4,0.3,0.6,0.5,1.2,0.4c6-1.3,11.6-3.4,16.9-6.4c0.2-0.1,0.5-0.2,0.8-0.5c-0.1,0.4-0.2,0.6-0.3,0.8c-2.3,6.1-6.2,11-11.6,14.5
				c-0.2,0.1-0.4,0.3-0.6,0.5c5.6-0.6,10.9-2,16.2-4.3c0,0.3-0.2,0.5-0.4,0.7c-3.7,5.2-8,9.7-13.2,13.5c-0.5,0.4-0.7,0.8-0.7,1.4
				c0.2,2.9,0,5.8-0.2,8.7c-0.4,5-1.2,9.9-2.4,14.7c-3.6,13.7-10,25.9-19.6,36.4c-10.9,12-24.3,19.9-40.1,23.6
				c-3.7,0.9-7.4,1.5-11.2,1.9c-4.5,0.5-9,0.5-13.5,0.3c-10.2-0.5-19.9-2.8-29.2-7c-3.5-1.5-6.8-3.3-10-5.3
				C478.4,593.3,478.2,593.2,478,593z M556.4,594c0.1,0,0.1,0,0.2,0c0-0.1,0-0.2,0-0.3c0,0-0.1,0-0.1,0
				C556.4,593.8,556.4,593.9,556.4,594z"/>
			<path d="M556.4,592.4c0-0.1,0-0.2,0-0.3c0,0,0.1,0,0.1,0c0,0.1,0,0.2,0,0.3C556.5,592.4,556.4,592.4,556.4,592.4z"/>
		</g>
	</g>
	<g>
		<path class="st9" d="M931.7,668.8H771.1c-22.3,0-40.3-18.1-40.3-40.3V467.9c0-22.3,18.1-40.3,40.3-40.3h160.6
			c22.3,0,40.3,18.1,40.3,40.3v160.6C972.1,650.8,954,668.8,931.7,668.8z"/>
		<g>
			<path class="st4" d="M851.5,599.6c-10.8-0.2-21.6-0.5-32.4-0.8c-5.1-0.1-10.1-0.3-15.2-0.8c-3.8-0.3-7.7-0.8-11.3-2.5
				c-4.3-2.1-7-5.6-8.6-10.1c-1.8-5-2.3-10.3-2.7-15.6c-0.9-12.7-0.9-25.4-0.3-38.1c0.2-4.5,0.7-9,1.2-13.5
				c0.5-3.9,1.6-7.7,3.6-11.2c2.5-4.3,6.2-6.9,10.9-8.1c4.4-1.1,8.9-1.1,13.3-1.3c8.1-0.3,16.2-0.6,24.2-0.7
				c10.5-0.1,20.9-0.2,31.4-0.1c8.4,0.1,16.8,0.4,25.1,0.7c4.5,0.2,9.1,0.4,13.5,1.1c7.4,1,12.3,5.3,14.7,12.6
				c1.5,4.4,2.1,9,2.5,13.7c1,11.3,1,22.6,0.7,33.8c-0.2,6.3-0.8,12.6-1.4,18.8c-0.3,3.4-1.4,6.8-2.8,9.9c-2.4,5.3-6.5,8.5-11.9,9.7
				c-3,0.7-6.1,0.9-9.1,1.1c-9.8,0.4-19.5,0.8-29.3,1c-5.4,0.1-10.7,0-16.1,0C851.5,599.4,851.5,599.5,851.5,599.6z M836.8,526
				c0,13.8,0,27.3,0,41.1c12.8-6.8,25.5-13.6,38.3-20.5C862.2,539.7,849.6,532.9,836.8,526z"/>
			<path class="st9" d="M832.1,518.3c15.7,8.4,31.2,16.8,46.9,25.3c2.4,1.3,2.4,4.7,0,6c-15.7,8.4-31.3,16.7-46.9,25.1
				c-2.2,1.2-4.8-0.5-4.8-3v-50.4C827.3,518.8,829.9,517.1,832.1,518.3z"/>
		</g>
	</g>
	<g>
		<linearGradient id="SVGID_2_" gradientUnits="userSpaceOnUse" x1="334.267" y1="451.6505" x2="130.8064" y2="673.6075">
			<stop  offset="0" style="stop-color:#6541C4"/>
			<stop  offset="5.732375e-002" style="stop-color:#7A3BBB"/>
			<stop  offset="0.2448" style="stop-color:#BA2BA0"/>
			<stop  offset="0.3814" style="stop-color:#E3208F"/>
			<stop  offset="0.4521" style="stop-color:#F21C89"/>
			<stop  offset="0.4991" style="stop-color:#F32169"/>
			<stop  offset="0.561" style="stop-color:#F32645"/>
			<stop  offset="0.619" style="stop-color:#F42A2B"/>
			<stop  offset="0.6712" style="stop-color:#F42C1B"/>
			<stop  offset="0.7125" style="stop-color:#F42D16"/>
			<stop  offset="0.7386" style="stop-color:#F43616"/>
			<stop  offset="0.7808" style="stop-color:#F44E17"/>
			<stop  offset="0.8339" style="stop-color:#F57519"/>
			<stop  offset="0.8956" style="stop-color:#F5AB1B"/>
			<stop  offset="0.9572" style="stop-color:#F6E81E"/>
		</linearGradient>
		<path class="st10" d="M326.1,668.8H165.5c-22.3,0-40.3-18.1-40.3-40.3V467.9c0-22.3,18.1-40.3,40.3-40.3h160.6
			c22.3,0,40.3,18.1,40.3,40.3v160.6C366.4,650.8,348.4,668.8,326.1,668.8z"/>
		<g>
			<g>
				<path class="st4" d="M245.7,623.5c-7.3,0-14.5,0.1-21.8,0c-7.1-0.1-14.1-0.1-21.1-1.8c-16.8-4-27-14.6-30.9-31.4
					c-1.3-5.6-1.5-11.4-1.6-17.2c-0.1-16.7-0.1-33.3,0-50c0-6.9,0.4-13.7,2.4-20.4c4.6-15.5,15-24.7,30.6-28.3
					c5.6-1.3,11.4-1.5,17.2-1.6c16.7-0.1,33.4-0.1,50.1,0c6.6,0,13.3,0.4,19.7,2.2c15.9,4.5,25.4,15,29,31
					c1.5,6.7,1.6,13.6,1.6,20.4c0.1,14.4,0.1,28.8,0,43.2c0,7.1-0.1,14.2-1.8,21.2c-4,17-14.7,27.3-31.7,31
					c-6.6,1.5-13.3,1.5-19.9,1.6C260.4,623.6,253.1,623.5,245.7,623.5z M245.8,486c0,0.1,0,0.2,0,0.2c-6.1,0-12.1-0.1-18.2,0
					c-6.9,0.1-13.9,0-20.8,1.3c-10.9,2.2-18.1,8.5-21.1,19.3c-1.3,4.8-1.6,9.8-1.7,14.7c-0.1,15.5-0.2,31-0.2,46.5
					c0,6.4,0,12.8,1.3,19c2.2,10.9,8.5,18.1,19.4,21.1c4.6,1.3,9.4,1.6,14.1,1.6c18,0.1,36,0.1,54,0c3.9,0,7.9-0.4,11.8-1.1
					c11-2.1,18.3-8.4,21.3-19.4c1.3-4.8,1.6-9.8,1.6-14.7c0.1-17.6,0.1-35.2,0-52.9c0-4.5-0.3-9.1-1.3-13.5
					c-1.7-7.6-5.7-13.7-12.6-17.6c-5-2.8-10.5-3.8-16.2-4C266.8,486.4,256.3,486.2,245.8,486z"/>
				<path class="st4" d="M245.8,509.4c21.6,0.1,38.9,17.4,38.8,39c-0.1,21.4-17.6,38.7-39.1,38.5c-21.4-0.1-38.5-17.6-38.4-39.2
					C207.2,526.6,224.6,509.3,245.8,509.4z M245.8,522.9c-13.9,0-25.2,11.2-25.3,25.2c-0.1,13.9,11.3,25.3,25.2,25.3
					c14,0,25.3-11.2,25.3-25.2C271,534.2,259.7,522.9,245.8,522.9z"/>
				<path class="st4" d="M286.2,516.9c-4.9,0.1-9.1-3.8-9.2-8.8c-0.2-4.9,3.9-9.1,8.8-9.2c5-0.1,9.2,3.8,9.3,8.8
					C295.2,512.7,291.2,516.8,286.2,516.9z"/>
			</g>
		</g>
	</g>
	<g>
		<path class="st11" d="M1234.5,365.2h-160.6c-22.3,0-40.3-18.1-40.3-40.3V164.2c0-22.3,18.1-40.3,40.3-40.3h160.6
			c22.3,0,40.3,18.1,40.3,40.3v160.6C1274.9,347.1,1256.8,365.2,1234.5,365.2z"/>
		<g>
			<path class="st4" d="M1161,233.5c10.1-12.2,22.5-13.4,35.8-9.3c10.2,3.1,14.8,11.4,15.9,21.2c1.1,10.1,1.2,20.2,1.4,30.4
				c0.2,8.1,0,16.2,0.1,24.3c0,3-0.8,4.5-4.1,4.4c-6-0.2-12.1-0.1-18.1,0c-2.6,0-3.6-0.9-3.6-3.6c0.1-12.6,0.1-25.2,0-37.8
				c0-2.5-0.3-5.1-0.7-7.6c-1.2-7.2-4.7-10.5-11.4-10.6c-7-0.2-12,3.5-13.5,10.2c-0.6,2.6-0.9,5.3-0.9,8c-0.1,12.4-0.2,24.7,0,37.1
				c0.1,3.7-1.3,4.7-4.7,4.6c-5.8-0.2-11.6-0.1-17.4,0c-2.8,0.1-3.8-1.1-3.8-3.9c0.1-24.2,0.1-48.4,0-72.6c0-3.3,1.3-4.2,4.4-4.1
				c5.3,0.2,10.6,0.3,15.8,0c3.8-0.2,5.2,1.2,4.7,4.9C1160.9,230,1161,231.3,1161,233.5z"/>
			<path class="st4" d="M1121.7,264.3c0,12-0.1,23.9,0.1,35.9c0,3.1-0.7,4.4-4,4.3c-5.9-0.2-11.8-0.1-17.7,0
				c-2.8,0.1-3.9-0.9-3.9-3.8c0.1-24.3,0-48.6,0-72.9c0-2.7,0.8-4,3.8-3.9c5.9,0.2,11.8,0.2,17.7,0c3.1-0.1,4.3,0.9,4.2,4.2
				C1121.6,240.1,1121.7,252.2,1121.7,264.3z"/>
			<path class="st4" d="M1108.9,214.3c-7.9,0-14.7-6.9-14.7-14.8c0-7.9,6.8-14.8,14.7-14.9c7.8-0.1,15.2,7.3,15,15.1
				C1123.7,207.6,1116.8,214.3,1108.9,214.3z"/>
		</g>
	</g>
	<g>
		<path class="st12" d="M628.9,972.5H468.3c-22.3,0-40.3-18.1-40.3-40.3V771.5c0-22.3,18.1-40.3,40.3-40.3h160.6
			c22.3,0,40.3,18.1,40.3,40.3v160.6C669.2,954.4,651.2,972.5,628.9,972.5z"/>
		<g>
			<path class="st4" d="M545.1,861.9c-9.1,0-17.9,0-26.9,0c0-6.8,0-13.3,0-20.2c16.2,0,32.4,0,48.7,0c6.5,19.1-6.7,48.8-25.8,57.8
				c-24.7,11.7-54.5,2.3-68-21.5c-13.4-23.5-7.2-53,14.6-69.1c19.3-14.3,50-12.5,64.3,4c-4.9,4.5-9.8,9-15.2,14
				c-6.4-5-14.8-8-24.5-6c-6.5,1.3-11.9,4.3-16.4,9.2c-9.1,9.7-10.9,24.9-4.5,36.9c6.4,11.9,19.1,18.1,32.6,15.7
				C535.7,880.5,543.3,873.3,545.1,861.9z"/>
			<path class="st4" d="M611,873.7c-4.6,0-8.3,0-12.6,0c0-6,0-11.9,0-18.3c-6.4,0-12.2,0-18.4,0c0-4.5,0-8.5,0-13c5.8,0,11.6,0,18,0
				c0-6.2,0-11.9,0-18.1c4.4,0,8.2,0,12.5,0c0,5.7,0,11.4,0,17.6c6.2,0,11.8,0,17.9,0c0,4.5,0,8.6,0,13.1c-5.5,0-11.2,0-17.4,0
				C611,861.4,611,867.3,611,873.7z"/>
		</g>
	</g>
	<g>
		<path class="st13" d="M1234.5,668.8h-160.6c-22.3,0-40.3-18.1-40.3-40.3V467.9c0-22.3,18.1-40.3,40.3-40.3h160.6
			c22.3,0,40.3,18.1,40.3,40.3v160.6C1274.9,650.8,1256.8,668.8,1234.5,668.8z"/>
		<path class="st4" d="M1083.2,586.2c1.6-0.4,3.1-0.7,4.5-1.1c8.3-2.5,14.9-7.5,20.3-14.2c3-3.7,5.5-7.7,7.4-12
			c0.5-1.2,0.9-2.5,1-3.8c0.3-2.8-0.9-5-3-6.8c-2-1.6-4.3-2.4-6.6-3.2c-1.9-0.7-3.7-1.3-5.5-2.2c-0.9-0.4-1.8-1.2-2.5-1.9
			c-0.8-0.8-0.7-1.6,0.1-2.4c1.3-1.3,3.4-1.7,5.2-1c2.9,1.3,5.9,2.2,9.1,1.7c0.8-0.1,1.5-0.3,2.2-0.6c1.9-0.8,2.2-1.4,2.1-3.5
			c-0.3-6.6-0.6-13.1-0.7-19.7c-0.3-16.2,11.7-28.4,24.3-31.9c11.3-3.2,22.4-2.8,32.9,2.9c7.9,4.3,13.3,10.9,16.1,19.4
			c1.4,4.2,1.5,8.7,1.3,13.2c-0.2,5.5-0.4,11.1-0.8,16.6c-0.1,1.4,0.4,2.1,1.5,2.7c2.3,1.3,4.6,1.3,7.1,0.7c1.5-0.4,3-1,4.4-1.5
			c1.9-0.8,4.3-0.4,5.7,1c0.8,0.8,1,1.6,0.2,2.5c-0.6,0.7-1.4,1.4-2.3,1.8c-1.9,0.9-3.8,1.6-5.7,2.3c-1.7,0.7-3.4,1.3-5,2.1
			c-4.4,2.5-5.9,6.3-3.9,10.9c4.7,10.9,12,19.6,22.8,25c2.7,1.3,5.6,2.2,8.6,2.8c0.3,0.1,0.6,0.1,0.9,0.2c0.1,0.1,0.1,0.2,0.2,0.3
			c-0.7,0.6-1.3,1.4-2.1,1.8c-2.4,1-4.9,2-7.4,2.7c-2.3,0.7-4.7,1.1-7,1.4c-1.8,0.3-2.9,1.2-3.4,2.8c-0.5,1.6-0.8,3.2-1.2,4.8
			c-0.5,2.2-0.5,2.2-2.8,1.8c-5.3-1-10.6-1.5-15.9-0.5c-3.4,0.6-6.3,2.3-9.1,4.2c-2.2,1.5-4.3,3.1-6.5,4.4
			c-10.4,6.5-20.9,6.4-31.2-0.2c-2.4-1.5-4.7-3.2-7.1-4.8c-5.2-3.8-11.2-4.6-17.4-4.1c-2.5,0.2-5.1,0.7-7.6,1.1
			c-1.4,0.2-1.5,0.2-1.8-1.1c-0.4-1.7-0.8-3.4-1.2-5.1c-0.5-2.1-1.8-3.2-4-3.5c-4.3-0.6-8.5-1.5-12.5-3.2c-0.9-0.4-1.8-1-2.7-1.6
			C1083.9,587.2,1083.6,586.7,1083.2,586.2z"/>
	</g>
	<g>
		<path class="st14" d="M326.1,972.5H165.5c-22.3,0-40.3-18.1-40.3-40.3V771.5c0-22.3,18.1-40.3,40.3-40.3h160.6
			c22.3,0,40.3,18.1,40.3,40.3v160.6C366.4,954.4,348.4,972.5,326.1,972.5z"/>
		<g>
			<path class="st4" d="M219.6,838.7c-4.8,0-9.4,0-14.2,0c0-0.3-0.1-0.6-0.1-0.9c0-5.5,0-11.1,0-16.6c0-0.8,0-0.8,0.8-1.1
				c5.2-2,9.8-4.8,13.8-8.7c5-4.8,8.3-10.7,10.5-17.2c1.2-3.7,2-7.4,2.5-11.2c0-0.2,0.1-0.5,0.1-0.7c0.2-0.5,0.5-0.8,1.1-0.9
				c0.2,0,0.4,0,0.7,0c6.3,0,12.5,0,18.8,0c0.3,0,0.7,0,1.1,0c0.1,2.4,0,4.8,0,7.2c0,2.4,0,4.8,0,7.1c0,2.4,0,4.8,0,7.1
				c0,2.4,0,4.8,0,7.1c0,2.4,0,4.8,0,7.3c1.2,0,2.3,0,3.5,0c1.2,0,2.4,0,3.6,0c1.2,0,2.3,0,3.5,0c1.2,0,2.4,0,3.6,0
				c1.2,0,2.3,0,3.5,0c1.2,0,2.3,0,3.5,0c1.2,0,2.4,0,3.6,0c1.2,0,2.3,0,3.5,0c0,7.2,0,14.2,0,21.4c-1.9,0.1-3.7,0-5.6,0
				c-1.9,0-3.8,0-5.6,0c-1.8,0-3.7,0-5.5,0c-1.9,0-3.8,0-5.6,0c-1.9,0-3.7,0-5.7,0c0,0.4-0.1,0.8-0.1,1.2c0,4.3,0,8.6,0,13
				c0,9.6,0,19.2,0,28.8c0,2.2,0.2,4.4,0.9,6.5c1.5,4.8,4.8,7.4,9.8,8c4.5,0.5,8.9-0.4,13.2-1.8c0.3-0.1,0.6-0.2,1-0.4
				c0.1,0.2,0.2,0.4,0.3,0.6c2.1,6.3,4.3,12.6,6.4,18.9c0.2,0.5,0.1,0.9-0.3,1.2c-1,0.8-1.9,1.6-3,2.3c-2.9,1.8-6.1,2.9-9.4,3.8
				c-5,1.4-10.2,1.9-15.4,1.7c-6.6-0.3-12.9-1.7-18.7-4.8c-9.7-5.2-15.8-13.3-18.7-23.9c-0.8-3.1-1.2-6.2-1.2-9.4
				c0-14.7,0-29.4,0-44.1C219.6,839.6,219.6,839.2,219.6,838.7z"/>
		</g>
	</g>
	<g>
		<path class="st15" d="M1234.5,1276.1h-160.6c-22.3,0-40.3-18.1-40.3-40.3v-160.6c0-22.3,18.1-40.3,40.3-40.3h160.6
			c22.3,0,40.3,18.1,40.3,40.3v160.6C1274.9,1258.1,1256.8,1276.1,1234.5,1276.1z"/>
		<g>
			<path class="st4" d="M1096.8,1193.4c0.2-0.7,0.3-1.5,0.5-2.2c0.7-3.1,1.4-6.2,2.1-9.3c0.2-0.8,0.5-1.7,0.6-2.5
				c0.4-1.6-0.1-3-1.3-4c-0.5-0.5-1.1-1-1.7-1.4c-5.4-3.9-10-8.5-13.6-14c-3.2-5-5.4-10.4-6.3-16.3c-1.1-6.7-0.4-13.3,1.6-19.8
				c2.2-6.9,5.6-13.1,10.7-18.4c4.2-4.4,9.1-7.8,14.6-10.5c4.8-2.4,9.9-4.1,15.1-5.2c4.6-0.9,9.2-1.3,13.8-1.1
				c14,0.6,26.3,5.3,36.8,14.7c5.4,4.9,9.5,10.6,12.2,17.4c1.3,3.4,2.2,6.9,2.6,10.5c0,0.4,0.1,0.7,0.1,1.1c0,0.1,0,0.2,0,0.4
				c-0.6,0.1-1.2,0.1-1.7,0.2c-7.4,0.5-14.6,2.1-21.4,5.2c-9.5,4.5-17,11.2-22.3,20.3c-2.5,4.3-4,8.9-4.9,13.8
				c-0.7,4-0.8,8.1-0.5,12.2c0,0.2,0,0.4,0,0.7c-0.5,0-0.9-0.1-1.3-0.1c-3.7-0.5-7.5-1-11.2-1.4c-1.5-0.2-3.1-0.3-4.7-0.3
				c-1.7-0.1-3.3,0.4-4.8,1.3c-4.5,2.8-9,5.6-13.5,8.4c-0.4,0.3-0.8,0.5-1.2,0.8C1096.9,1193.5,1096.8,1193.4,1096.8,1193.4z
				 M1152.9,1120.1c-3.6,0-6.5,2.9-6.6,6.3c0,3.6,2.8,6.4,6.4,6.4c3.6,0,6.5-2.7,6.4-6.4C1159.2,1122.5,1156,1120.1,1152.9,1120.1z
				 M1105.1,1126.5c0,3.6,2.8,6.3,6.4,6.3c3.6,0,6.5-2.9,6.5-6.3c0-3.4-3-6.4-6.5-6.4C1107.9,1120.1,1105.1,1122.9,1105.1,1126.5z"
				/>
			<path class="st4" d="M1216.9,1222.5c-0.4-0.2-0.6-0.2-0.9-0.4c-1.6-0.8-3.3-1.7-4.9-2.5c-1.2-0.6-2.3-1.1-3.5-1.6
				c-2.9-1.2-5.8-1.4-8.8-0.6c-1.1,0.3-2.2,0.5-3.3,0.9c-3.1,1-6.3,1.5-9.6,1.5c-7.1,0.2-13.9-0.9-20.4-3.8
				c-9.7-4.4-17.2-11.1-22.2-20.5c-2.1-3.9-3.4-8-3.9-12.4c-0.9-7.6,0.5-14.7,4-21.4c3.1-6,7.6-10.8,13.1-14.7
				c5.9-4.2,12.4-6.9,19.5-8.2c3.3-0.6,6.7-0.9,10.1-0.8c8.1,0.2,15.7,1.9,22.9,5.6c8.8,4.6,15.4,11.3,19.6,20.4
				c1.8,3.9,2.9,7.9,3.2,12.2c0.8,10.6-2.4,19.8-9.5,27.7c-1.1,1.3-2.4,2.4-3.6,3.5c-1.1,1-2.1,2-2.9,3.3c-0.6,0.9-0.9,1.8-1.1,2.8
				c-0.2,1.3,0,2.5,0.4,3.7c0.2,0.7,0.5,1.3,0.9,2C1216.5,1220,1216.7,1221.2,1216.9,1222.5z M1164.9,1172c2.9,0,5.3-2.3,5.3-5.2
				c0-3-2.3-5.3-5.3-5.3c-2.9,0-5.3,2.4-5.3,5.3C1159.6,1169.8,1162.2,1172.1,1164.9,1172z M1203.5,1166.9c0-2.9-2.2-5.3-5-5.4
				c-2.7-0.1-5.3,2.1-5.4,5.1c-0.1,3,2.2,5.4,5.1,5.4C1201.2,1172,1203.5,1169.8,1203.5,1166.9z"/>
		</g>
	</g>
	<g>
		<path class="st16" d="M1234.5,972.5h-160.6c-22.3,0-40.3-18.1-40.3-40.3V771.5c0-22.3,18.1-40.3,40.3-40.3h160.6
			c22.3,0,40.3,18.1,40.3,40.3v160.6C1274.9,954.4,1256.8,972.5,1234.5,972.5z"/>
		<g>
			<path class="st4" d="M1154.9,913.5c-9.8-0.1-18.8-0.2-27.9-0.3c-1.6,0-3.3,0-4.9-0.2c-2.2-0.2-4.3-0.8-6.3-1.6
				c-6.9-2.9-12.1-7.6-15.5-14.2c-0.2-0.4-0.4-0.8-0.6-1.2c-1.3-2.1-1.7-4.5-1.8-6.9c-0.1-4.3-0.3-8.6-0.3-12.9
				c0-16.6,0-33.2,0-49.8c0-3.1,0.2-6.3,0.1-9.4c-0.1-5.2,1.6-9.8,4.4-14c4.4-6.5,10.5-10.6,18.1-12.4c0.7-0.2,1.5-0.3,2.3-0.3
				c4.9-0.1,9.9-0.2,14.8-0.2c7.9,0,15.9,0,23.8,0c2,0,4,0.1,6,0.2c2.5,0.2,4.9,0.9,7.2,1.9c6.5,2.9,11.5,7.5,14.7,13.9
				c1,2,2.1,4.1,2.3,6.4c0.2,1.7,0.3,3.5,0.4,5.2c0.1,4.2,0.2,8.3,0.2,12.5c0.1,3,0.1,6,0.2,9.1c0,0.2,0,0.4,0.1,0.6
				c0.7,1.5,1.4,3,2.5,4.2c1,1.1,2.2,1.9,3.6,2.2c1.7,0.4,3.4,0.8,5.1,1.1c2.5,0.4,4.5,1.6,6.1,3.5c0.7,0.8,0.9,1.7,1,2.7
				c0.2,2.2,0.3,4.3,0.3,6.5c0,8.4,0,16.8,0,25.2c0,1.8-0.1,3.5-0.3,5.3c-0.1,0.7-0.3,1.5-0.5,2.2c-2.7,8.3-8.1,14.4-16,18.2
				c-3.6,1.8-7.5,2.3-11.6,2.3C1173,913.3,1163.6,913.4,1154.9,913.5z M1154,884.8C1154,884.8,1154,884.8,1154,884.8
				c6.1-0.1,12.3-0.1,18.4-0.1c1.3,0,2.6-0.1,3.9-0.2c0.4,0,0.8-0.1,1.2-0.3c2.4-1.1,4-2.9,4.9-5.4c0.2-0.4,0.2-0.9,0.2-1.3
				c0-1.2,0-2.3,0-3.5c0-1.6-0.5-3-1.5-4.2c-0.7-0.8-1.4-1.6-2.2-2.4c-0.6-0.6-1.3-1-2.2-1.1c-1.4-0.2-2.9-0.3-4.3-0.4
				c-4.8-0.1-9.6-0.1-14.3-0.2c-2.8,0-5.6,0-8.4,0c-5.6,0-11.2,0-16.8-0.1c-0.3,0-0.6,0-0.8,0.2c-0.8,0.4-1.5,0.8-2.3,1.2
				c-1.7,1-2.8,2.4-3.6,4.2c-0.7,1.6-1,3.3-0.8,5.1c0.2,3,1.4,5.4,4,7c0.6,0.4,1.3,0.7,1.9,1.1c0.5,0.3,1.1,0.4,1.7,0.4
				c1-0.1,2-0.1,2.9-0.1C1142,884.8,1148,884.8,1154,884.8z M1146.8,837.1c4.9,0.1,9.7,0.1,14.6,0.2c0.3,0,0.6,0,0.9-0.2
				c1.1-0.6,2.2-1.1,3.2-1.8c1.5-1,2.5-2.4,3-4.2c0.4-1.5,0.4-3,0.3-4.5c-0.2-2.9-1.6-5.2-4.2-6.6c-0.4-0.2-0.8-0.4-1.1-0.6
				c-1-0.7-2.1-0.9-3.3-0.8c-0.5,0.1-1,0-1.6,0c-5.6,0-11.2-0.1-16.7,0c-3.5,0-7,0-10.4,0.4c-0.9,0.1-1.7,0.4-2.4,1
				c-0.5,0.4-0.9,0.8-1.3,1.3c-2.5,2.5-3,5.6-2.3,8.9c0.6,2.5,2,4.6,4.3,6c0.7,0.4,1.4,0.7,2.2,0.7c2,0.1,3.9,0.2,5.9,0.2
				C1140.9,837.1,1143.8,837.1,1146.8,837.1z"/>
		</g>
	</g>
	<g>
		<path class="st17" d="M931.7,1276.1H771.1c-22.3,0-40.3-18.1-40.3-40.3v-160.6c0-22.3,18.1-40.3,40.3-40.3h160.6
			c22.3,0,40.3,18.1,40.3,40.3v160.6C972.1,1258.1,954,1276.1,931.7,1276.1z"/>
		<g>
			<circle class="st18" cx="811.1" cy="1155.5" r="34.3"/>
			<circle class="st19" cx="891.7" cy="1155.5" r="34.3"/>
		</g>
	</g>
	<g>
		<path class="st20" d="M326.1,1276.1H165.5c-22.3,0-40.3-18.1-40.3-40.3v-160.6c0-22.3,18.1-40.3,40.3-40.3h160.6
			c22.3,0,40.3,18.1,40.3,40.3v160.6C366.4,1258.1,348.4,1276.1,326.1,1276.1z"/>
		<g>
			<path class="st21" d="M317.9,1155.5c0,4-0.3,8.1-1,12c-0.1,0.3,0,0.6,0.1,0.8c2.7,4.9,4.4,10.2,5.1,15.7
				c1.9,15.5-4.7,30.5-17.2,39.8c-5.6,4.1-11.9,6.7-18.7,7.7c-8.7,1.3-17,0.2-25-3.6c-0.9-0.4-1.7-0.8-2.5-1.3
				c-0.3-0.2-0.5-0.2-0.8-0.1c-5.6,0.9-11.2,1.2-16.8,0.8c-7.8-0.5-15.3-2.2-22.5-5.1c-6.9-2.8-13.2-6.6-18.9-11.4
				c-9.3-7.8-16.3-17.3-20.8-28.5c-2.2-5.3-3.6-10.8-4.4-16.5c-0.6-4.2-0.8-8.4-0.7-12.6c0.1-3.4,0.4-6.7,1-10c0-0.2,0-0.5-0.1-0.7
				c-2.7-4.8-4.4-10-5.1-15.4c-1.5-12.3,1.7-23.2,9.4-32.8c4.4-5.4,9.9-9.5,16.3-12.2c3.8-1.6,7.7-2.6,11.8-3.1
				c3.5-0.4,7-0.4,10.5,0c5.4,0.7,10.6,2.3,15.4,5c0.3,0.2,0.7,0.2,1.1,0.2c5.1-0.8,10.2-1.1,15.3-0.9c5.8,0.3,11.4,1.2,16.9,2.8
				c9.1,2.7,17.4,6.9,24.7,12.9c12.8,10.4,21.2,23.5,25.1,39.6C317.3,1144.2,318,1149.8,317.9,1155.5z M184.6,1155.5
				c0,4.6,0.5,9.2,1.5,13.4c3.3,14.2,10.7,25.8,22.1,34.8c5.6,4.5,11.9,7.8,18.8,10c5.2,1.7,10.6,2.6,16,2.9
				c5.4,0.2,10.7-0.2,16-1.3c0.9-0.2,1.7-0.2,2.4,0.4c0.2,0.2,0.4,0.3,0.6,0.4c2.3,1.3,4.7,2.6,7.3,3.5c5.6,1.9,11.3,2.2,17.1,0.9
				c7.1-1.6,13-5.1,17.6-10.7c4.4-5.3,6.9-11.5,7.4-18.4c0.3-4.3-0.2-8.4-1.7-12.5c-1.1-3-2.6-5.9-4.2-8.6c-0.1-0.2-0.2-0.4-0.1-0.7
				c0.5-2.6,0.9-5.1,1.2-7.8c0.4-4.4,0.4-8.8,0-13.2c-0.5-4.8-1.6-9.5-3.3-14c-6.5-18-21.4-32.1-39.8-37.8
				c-4.3-1.3-8.8-2.1-13.3-2.4c-3.2-0.2-6.5-0.2-9.7,0c-3,0.2-6,0.7-9,1.3c-0.2,0-0.3,0-0.5-0.1c-0.9-0.5-1.8-1-2.7-1.5
				c-6.9-4-14.2-5.3-22.1-3.9c-7.1,1.3-13.1,4.6-18,10c-4.9,5.4-7.6,11.8-8.2,19.2c-0.3,3.9,0.1,7.7,1.3,11.4
				c1.1,3.4,2.6,6.6,4.5,9.6c0.2,0.3,0.2,0.6,0.2,0.9C185.1,1146.1,184.6,1150.8,184.6,1155.5z"/>
			<path class="st21" d="M245.6,1111.2c6.5,0,14.1,1.7,21.1,5.5c2.8,1.5,5.5,3.3,7.6,5.8c1.6,1.9,2.8,4,3.2,6.5
				c0.2,1.3,0.2,2.6-0.2,3.9c-0.6,2.2-2.1,3.5-4.1,4.4c-2.2,1-4.4,1.1-6.7,0.5c-1.4-0.4-2.5-1.3-3.6-2.3c-1.2-1.1-2.2-2.3-3.3-3.5
				c-3.2-3.5-7.1-5.5-11.8-6.1c-2.7-0.4-5.4-0.5-8.1-0.1c-2.7,0.4-5.1,1.2-7.2,3c-2.4,2.1-3.6,5.9-2.7,8.8c0.5,1.7,1.7,2.9,3.2,3.8
				c1.5,1,3.2,1.6,4.9,2.2c4.4,1.3,9,2.2,13.5,3.3c3.8,0.9,7.6,1.6,11.4,2.7c3.7,1.1,7.1,2.8,10.2,5.1c4.2,3.2,6.7,7.4,7.8,12.5
				c1.6,7.5,0.2,14.5-4.3,20.7c-2.5,3.4-5.8,5.8-9.6,7.7c-3.6,1.8-7.4,2.9-11.4,3.5c-4.1,0.6-8.2,0.9-12.4,0.7
				c-5.6-0.3-11.1-1.1-16.3-3.2c-4.3-1.7-8.3-4-11.5-7.4c-2.3-2.4-4-5-4.7-8.3c-0.4-2-0.5-4,0.3-5.9c1-2.5,3-3.9,5.5-4.6
				c3.1-0.8,5.8-0.2,8.1,2.1c0.9,0.9,1.7,1.8,2.5,2.8c1.2,1.5,2.3,3.1,3.6,4.5c2.7,3,6.1,4.7,10,5.5c3.3,0.6,6.6,0.7,9.9,0.1
				c3.6-0.7,6.8-2.2,9.2-5.1c1.4-1.7,2.3-3.6,2.4-5.9c0.1-3.1-1.3-5.4-3.8-7.1c-1.4-1-3-1.5-4.7-2c-6-1.5-12-3.1-18.1-4.6
				c-3.1-0.8-6.3-1.5-9.3-2.7c-3.6-1.4-7-3.2-9.7-6c-2.7-2.8-4.4-6.1-5.1-9.9c-0.6-3.1-0.7-6.3-0.2-9.4c0.8-5.6,3.3-10.2,7.6-13.9
				c3.5-2.9,7.5-4.8,11.8-6C234.9,1111.8,239.4,1111.2,245.6,1111.2z"/>
		</g>
	</g>
	<g>
		<path class="st22" d="M931.7,972.5H771.1c-22.3,0-40.3-18.1-40.3-40.3V771.5c0-22.3,18.1-40.3,40.3-40.3h160.6
			c22.3,0,40.3,18.1,40.3,40.3v160.6C972.1,954.4,954,972.5,931.7,972.5z"/>
		<g>
			<path class="st23" d="M806.9,897.9c-2.6-2.4-5.4-4.8-7.8-7.4c-25.8-27.1-23.6-67.9,4.9-92.2c28.4-24.2,72.5-22.5,98.9,3.6
				c29.5,29.2,23.8,76.6-11.8,99c-17.6,11.1-36.7,13.7-56.9,9.3c-2.1-0.5-3.8-0.2-5.6,0.8c-7.1,3.8-13.8,8.3-21.3,11.3
				c-1.1-1.3-0.5-2.8-0.5-4.2C806.7,911.4,806.3,904.7,806.9,897.9z"/>
			<path class="st24" d="M808.4,866.5c11.6-12.4,22.9-24.4,34.1-36.5c1.4-1.5,2.1-0.9,3.2,0.2c4.8,5.1,9.7,10,14.3,15.1
				c1.8,2,3.1,2,5.3,0.7c8.3-4.9,16.8-9.5,25.2-14.3c0.7-0.4,1.3-0.6,2.3,0.1c-9.5,11.6-20.3,22.1-30.3,33.1c-4,4.3-4,4.3-8,0
				c-4.1-4.4-8.2-8.7-12.1-13.1c-1.3-1.5-2.3-1.6-4-0.6c-8.4,4.7-16.9,9.2-25.4,13.8C811.6,865.8,810.5,866.8,808.4,866.5z"/>
		</g>
	</g>
	<g>
		<path class="st25" d="M628.9,1276.1H468.3c-22.3,0-40.3-18.1-40.3-40.3v-160.6c0-22.3,18.1-40.3,40.3-40.3h160.6
			c22.3,0,40.3,18.1,40.3,40.3v160.6C669.2,1258.1,651.2,1276.1,628.9,1276.1z"/>
		<g>
			<path class="st21" d="M633.9,1173.2c-0.8,9.6-7.9,17.3-17.4,19c-1.2,0.2-2.4,0.3-3.6,0.3c-13.9,0-27.8,0-41.8,0
				c-5.3,0-10.7,0-16,0c-1.6,0-2.7-1-2.7-2.7c0-22.1,0-44.1,0-66.2c0-1.3,0.6-2.2,1.8-2.6c2.4-0.9,4.8-1.6,7.3-2
				c1.5-0.3,3.1-0.4,4.6-0.5c0.2,0,0.4,0,0.6,0c0.8,0,1.5,0,2.3,0c0.2,0,0.4,0,0.6,0c3.7-0.1,7.3,0.7,10.8,2c2.8,1,5.5,2.4,8,4
				c1.7,1.1,3.3,2.4,4.7,3.8c2.6,2.4,4.8,5.1,6.6,8.1c2.5,4.2,4.1,8.6,4.9,13.4c0.1,0.6,0.1,1.1,0.2,1.7c0,0.4,0.2,0.4,0.5,0.3
				c1.6-0.6,3.1-1,4.8-1.2c1.3-0.1,2.6-0.2,3.9-0.1c1.7,0.1,3.3,0.4,5,0.9c2.4,0.7,4.6,1.8,6.6,3.4c2.4,1.8,4.3,4,5.8,6.6
				c1.1,1.9,1.9,4,2.3,6.2c0.2,0.9,0.2,1.7,0.2,2.6c0,0.2,0,0.4,0,0.6c0,0.6,0,1.1,0,1.7c-0.1,0.2,0,0.3,0,0.5
				C633.9,1172.9,634,1173.1,633.9,1173.2z"/>
			<path class="st21" d="M569.1,1118.4c-0.8,0-1.6,0-2.4,0c0,0,0,0-0.1,0c0,0,0,0,0.1,0C567.5,1118.4,568.3,1118.4,569.1,1118.4
				C569.1,1118.4,569.2,1118.4,569.1,1118.4C569.2,1118.4,569.1,1118.4,569.1,1118.4z"/>
			<path class="st21" d="M633.9,1170C633.9,1170,634,1170,633.9,1170c0.1,0.2,0.1,0.4,0.1,0.7C633.9,1170.4,633.9,1170.2,633.9,1170
				z"/>
			<path class="st21" d="M569.1,1118.4C569.1,1118.4,569.1,1118.4,569.1,1118.4c0.2-0.1,0.4-0.1,0.6-0.1c0,0,0,0,0,0.1
				C569.6,1118.4,569.3,1118.4,569.1,1118.4z"/>
			<path class="st21" d="M566.8,1118.4C566.7,1118.4,566.7,1118.4,566.8,1118.4c-0.2,0.1-0.4,0.1-0.6,0.1c0,0,0,0,0-0.1
				C566.4,1118.4,566.6,1118.4,566.8,1118.4z"/>
			<path class="st21" d="M633.9,1172.8c0-0.2,0-0.3,0.1-0.5C634,1172.4,634,1172.6,633.9,1172.8C634,1172.8,634,1172.8,633.9,1172.8
				z"/>
			<path class="st21" d="M633.9,1172.8C633.9,1172.8,634,1172.8,633.9,1172.8c0.1,0.1,0.1,0.3,0.1,0.4c0,0,0,0-0.1,0
				C633.9,1173.1,633.9,1172.9,633.9,1172.8z"/>
			<path class="st21" d="M545.2,1157.8c0.2-7.8,0.3-15.5,0.5-23.3c0.1-2.9,0.1-5.9,0.2-8.8c0-1.1,0.7-2,1.6-2.3
				c1.3-0.4,2.8,0.5,2.9,1.9c0.1,1.3,0.1,2.7,0.1,4c0.2,9.5,0.4,18.9,0.6,28.4c0.1,4.9,0.2,9.8,0.3,14.6c0,1.5-0.1,3-0.2,4.5
				c-0.1,2.7-0.3,5.3-0.5,7.9c-0.1,1.7-0.2,3.5-0.3,5.2c-0.1,1.2-0.8,2.1-1.8,2.3c-1.4,0.3-2.7-0.7-2.8-2.1
				c-0.2-2.7-0.3-5.4-0.4-8.1c-0.2-2.8-0.3-5.7-0.5-8.5c-0.1-0.9,0-1.8,0-2.8C545.1,1166.6,545.1,1162.2,545.2,1157.8
				C545.2,1157.8,545.2,1157.8,545.2,1157.8z"/>
			<path class="st21" d="M538.3,1160c0.2-10.1,0.4-20.2,0.6-30.3c0-1.6,1.4-2.7,2.8-2.2c0.9,0.3,1.4,0.9,1.5,1.9
				c0.1,1.4,0.1,2.7,0.1,4.1c0.2,7.4,0.3,14.9,0.5,22.3c0.1,5.6,0.2,11.1,0.3,16.7c0,1.8-0.2,3.7-0.2,5.5c-0.1,2.5-0.3,5-0.4,7.6
				c-0.1,1.6-0.2,3.1-0.2,4.7c0,0.3,0,0.6-0.1,0.8c-0.4,1-1.3,1.6-2.3,1.4c-1-0.1-1.8-1-1.9-2.1c-0.2-3.2-0.3-6.4-0.4-9.6
				c-0.1-2.3-0.2-4.6-0.3-6.8c-0.1-2.5,0-4.9,0.1-7.4C538.2,1164.4,538.2,1162.2,538.3,1160C538.3,1160,538.3,1160,538.3,1160z"/>
			<path class="st21" d="M536.6,1163.5c0.1,3.1,0.2,6.2,0.2,9.3c0,1.6-0.1,3.2-0.2,4.7c-0.2,2.7-0.3,5.4-0.5,8.1
				c-0.1,1.7-0.2,3.3-0.3,5c-0.1,1.1-1,1.9-2,1.9c-1,0-2-0.8-2-1.9c-0.2-4.6-0.4-9.2-0.7-13.9c-0.3-4.4,0-8.8,0.1-13.2
				c0.1-4.5,0.2-8.9,0.3-13.4c0.1-4.6,0.2-9.1,0.3-13.7c0-1.2,0.9-2,2-2c1.1,0,2,0.9,2,2.1c0.2,8.7,0.5,17.5,0.7,26.2
				C536.6,1163,536.6,1163.3,536.6,1163.5C536.6,1163.5,536.6,1163.5,536.6,1163.5z"/>
			<path class="st21" d="M529.1,1154.2c0.2,6.1,0.4,12.1,0.5,18.2c0,1.5-0.1,2.9-0.2,4.4c-0.1,2.5-0.3,5-0.5,7.5
				c-0.1,2.1-0.3,4.3-0.4,6.4c-0.1,1.1-0.9,1.8-1.9,1.8c-1,0-1.8-0.8-1.8-1.9c-0.3-5.8-0.7-11.7-1-17.5c0-0.9,0-1.8,0-2.7
				c0.2-7.3,0.4-14.5,0.6-21.8c0.1-4.5,0.2-8.9,0.4-13.4c0-1,0.7-1.8,1.7-1.9c0.9-0.1,1.8,0.5,2,1.4c0.1,0.3,0.1,0.5,0.1,0.8
				c0.1,4.5,0.3,8.9,0.4,13.4C529,1150.6,529,1152.4,529.1,1154.2C529.1,1154.2,529.1,1154.2,529.1,1154.2z"/>
			<path class="st21" d="M517.3,1154.2c0.1-3.8,0.2-7.6,0.3-11.4c0.1-2.9,0.1-5.7,0.2-8.6c0-1.3,1-2.1,2.2-1.8
				c0.7,0.2,1.2,0.7,1.3,1.5c0.1,1,0.1,2.1,0.1,3.1c0.2,6.7,0.4,13.5,0.6,20.2c0.2,5.2,0.3,10.4,0.5,15.6c0,1.4-0.2,2.8-0.2,4.2
				c-0.2,2.3-0.3,4.6-0.5,6.9c-0.2,2.2-0.3,4.5-0.5,6.7c-0.1,1-0.6,1.7-1.5,1.8c-1,0.2-1.9-0.5-2-1.4c-0.1-0.9-0.1-1.9-0.2-2.9
				c-0.2-3.5-0.4-6.9-0.6-10.4c-0.3-3.4-0.3-6.8-0.1-10.1c0.1-4.1,0.2-8.3,0.4-12.4C517.3,1154.8,517.3,1154.5,517.3,1154.2
				C517.3,1154.2,517.3,1154.2,517.3,1154.2z"/>
			<path class="st21" d="M510.4,1154.3c0.2-5.8,0.4-11.6,0.5-17.4c0-0.5,0-1.1,0-1.6c0-0.7,0.5-1.3,1.1-1.5c0.6-0.2,1.2,0,1.7,0.5
				c0.3,0.3,0.4,0.7,0.4,1.1c0.1,1.7,0.1,3.5,0.2,5.2c0.2,5.3,0.4,10.5,0.6,15.8c0.1,3.7,0.3,7.5,0.4,11.2c0.1,1.7,0.2,3.4,0.2,5.1
				c0,1.1-0.1,2.2-0.2,3.3c-0.2,2.5-0.4,5-0.5,7.5s-0.4,5-0.6,7.5c-0.1,0.9-0.7,1.5-1.6,1.5c-0.9,0-1.5-0.7-1.6-1.6
				c-0.1-1.5-0.2-3.1-0.3-4.6c-0.2-2.9-0.3-5.7-0.6-8.6c-0.3-3.4-0.3-6.9-0.1-10.3c0.1-3.5,0.2-7.1,0.3-10.6
				C510.3,1156,510.3,1155.2,510.4,1154.3C510.3,1154.3,510.3,1154.3,510.4,1154.3z"/>
			<path class="st21" d="M507.6,1156c0.2,3.8,0.3,7.6,0.5,11.4c0.1,1.7,0.2,3.4,0.2,5.1c0,1.3-0.2,2.6-0.2,3.9
				c-0.2,2.3-0.4,4.6-0.5,6.9c-0.2,2.6-0.4,5.1-0.6,7.7c-0.1,1.1-0.9,1.7-1.9,1.4c-0.6-0.2-0.9-0.6-1-1.2c-0.1-1.2-0.2-2.5-0.3-3.7
				c-0.2-3-0.4-6-0.6-9c-0.1-1.8-0.3-3.6-0.4-5.5c0-1.6,0.1-3.1,0.1-4.7c0.1-3,0.2-6.1,0.3-9.1c0.2-4.4,0.3-8.8,0.5-13.2
				c0.1-2.4,0.2-4.7,0.2-7.1c0-0.3,0-0.6,0.1-0.9c0.1-0.7,0.7-1.3,1.4-1.3c0.7,0,1.3,0.5,1.4,1.3c0.1,0.8,0.1,1.6,0.1,2.5
				C507.2,1145.8,507.4,1150.9,507.6,1156C507.6,1156,507.6,1156,507.6,1156z"/>
			<path class="st21" d="M500.7,1159.2c0.2,4.5,0.5,9,0.7,13.4c0.1,1.2-0.2,2.5-0.3,3.7c-0.2,2.5-0.4,4.9-0.6,7.4
				c-0.2,2.4-0.4,4.9-0.6,7.3c-0.1,0.9-0.6,1.4-1.2,1.4c-0.7,0-1.3-0.4-1.3-1.2c-0.1-1.1-0.2-2.3-0.3-3.4c-0.2-2.8-0.4-5.7-0.6-8.5
				c-0.2-2.1-0.4-4.1-0.4-6.2c0-1.4,0.1-2.8,0.1-4.2c0.1-2.8,0.3-5.6,0.4-8.4c0.2-3.8,0.4-7.7,0.5-11.5c0.1-1.3,0.1-2.6,0.2-3.9
				c0-0.2,0-0.5,0.1-0.7c0.1-0.6,0.6-1.1,1.3-1.1c0.6,0,1.2,0.5,1.3,1.1c0.1,0.6,0.1,1.2,0.1,1.9
				C500.2,1150.7,500.5,1154.9,500.7,1159.2C500.7,1159.2,500.7,1159.2,500.7,1159.2z"/>
			<path class="st21" d="M489.2,1172.9c0.1-1.3,0.2-2.7,0.3-4c0.2-2.5,0.4-5,0.6-7.5c0.2-1.9,0.3-3.9,0.5-5.8
				c0.1-0.7,0.5-1.1,1.1-1.1c0.6,0,1.1,0.4,1.2,1.1c0.2,1.4,0.3,2.8,0.4,4.2c0.3,2.7,0.5,5.4,0.8,8.1c0.2,1.6,0.3,3.2,0.4,4.9
				c0.1,1-0.1,2-0.2,3.1c-0.2,2.6-0.5,5.2-0.7,7.7c-0.2,2.5-0.4,5-0.7,7.5c0,0.1,0,0.2,0,0.3c-0.1,0.6-0.6,1-1.2,1
				c-0.5,0-1-0.4-1.1-1c-0.1-1.2-0.2-2.3-0.3-3.5c-0.2-2.9-0.5-5.9-0.7-8.8C489.5,1176.9,489.3,1174.9,489.2,1172.9z"/>
			<path class="st21" d="M482.4,1172.9c0.1-1.4,0.2-2.9,0.3-4.3c0.2-2.5,0.4-5.1,0.6-7.6c0.2-2.2,0.4-4.4,0.5-6.6c0-0.1,0-0.2,0-0.4
				c0.1-0.5,0.5-0.8,0.9-0.8c0.5,0,0.9,0.3,1,0.8c0.1,0.6,0.1,1.3,0.2,2c0.3,3.3,0.6,6.7,0.9,10c0.2,2.2,0.4,4.3,0.6,6.5
				c0.1,0.9-0.1,1.7-0.2,2.6c-0.2,2.7-0.5,5.3-0.8,8c-0.2,2.6-0.5,5.2-0.7,7.9c-0.1,0.7-0.5,1.1-1,1.1c-0.5,0-0.9-0.4-1-0.9
				c-0.1-1.3-0.2-2.7-0.3-4c-0.2-2.8-0.5-5.5-0.7-8.3C482.7,1176.8,482.6,1174.9,482.4,1172.9z"/>
			<path class="st21" d="M480.8,1172.9c-0.1,1.4-0.3,2.8-0.4,4.1c-0.3,2.4-0.5,4.9-0.8,7.3c-0.2,2-0.4,3.9-0.6,5.9
				c-0.1,0.7-0.4,1-0.9,1c-0.5,0-0.8-0.4-0.9-1.1c-0.3-2.8-0.5-5.6-0.8-8.5c-0.3-2.9-0.6-5.8-0.8-8.7c-0.1-0.9,0.1-1.8,0.2-2.7
				c0.2-2.6,0.5-5.3,0.7-7.9c0.2-2.5,0.4-5,0.7-7.6c0.1-0.6,0.4-0.9,0.9-0.9c0.5,0,0.8,0.3,0.9,0.9c0.2,1.8,0.4,3.7,0.6,5.5
				c0.3,2.8,0.6,5.6,0.8,8.3C480.5,1170.1,480.7,1171.5,480.8,1172.9z"/>
			<path class="st21" d="M469.1,1172.9c0.1-1,0.2-2.1,0.3-3.2c0.3-2.7,0.6-5.5,0.9-8.2c0.1-1.3,0.3-2.5,0.4-3.8
				c0.1-0.5,0.3-0.8,0.7-0.8c0.4,0,0.7,0.3,0.7,0.8c0.3,2.3,0.6,4.6,0.9,6.9c0.3,2.6,0.7,5.3,1,7.9c0.1,0.6-0.1,1.3-0.1,1.9
				c-0.5,3.9-1,7.8-1.5,11.8c-0.1,0.6-0.1,1.1-0.2,1.7c-0.1,0.5-0.3,0.8-0.7,0.8c-0.4,0-0.7-0.3-0.7-0.8c-0.4-3.2-0.7-6.4-1.1-9.6
				c-0.2-1.6-0.4-3.2-0.5-4.8C469.1,1173.3,469.1,1173.1,469.1,1172.9z"/>
			<path class="st21" d="M463.2,1172.9c0.1-1,0.3-2,0.4-3c0.3-2.1,0.6-4.2,0.8-6.3c0-0.1,0-0.2,0-0.3c0.1-0.4,0.3-0.6,0.7-0.6
				c0.4,0,0.6,0.2,0.7,0.6c0.1,0.7,0.2,1.4,0.4,2.2c0.4,2.4,0.7,4.8,1.1,7.2c0,0.2,0,0.3,0,0.5c-0.5,2.9-0.9,5.9-1.4,8.8
				c0,0.1,0,0.1,0,0.2c-0.1,0.5-0.3,0.7-0.7,0.7c-0.4,0-0.6-0.3-0.7-0.8c-0.2-1.2-0.3-2.5-0.5-3.7c-0.2-1.8-0.5-3.5-0.7-5.3
				C463.2,1173.1,463.2,1173,463.2,1172.9z"/>
		</g>
	</g>
</g>
<path class="st5" d="M443,247c0,0-0.1-0.7-0.2-2.1c-0.1-1.4-0.3-3.4-0.4-6c-0.2-2.6-0.4-5.7-0.6-9.4c-0.2-3.6-0.5-7.7-0.7-12.1
	c-0.2-4.4-0.5-9.3-0.8-14.4c-0.2-5.1-0.5-10.5-0.7-16c-0.1-2.8-0.2-5.6-0.3-8.5c-0.1-1.4-0.1-2.9-0.2-4.3l0-0.3l0-0.5l0-0.5l0-1.1
	l0-1.1c0-0.4,0-0.7,0.1-1.2l0.3-2.6c0.1-0.4,0.1-0.9,0.2-1.3l0.3-1.2l0.5-2.4l0.8-2.4c0.5-1.6,1.2-3.1,1.9-4.6
	c0.4-0.8,0.8-1.5,1.2-2.2c0.4-0.7,0.8-1.5,1.3-2.2c3.8-5.6,8.9-10.3,15-13.1c0.8-0.4,1.5-0.7,2.3-1.1c0.8-0.3,1.6-0.6,2.3-0.8
	l1.2-0.4c0.4-0.1,0.8-0.2,1.2-0.3c0.8-0.2,1.6-0.4,2.4-0.6c0.8-0.2,1.6-0.2,2.4-0.4c0.8-0.1,1.6-0.2,2.4-0.3c0.8,0,1.6,0,2.4-0.1
	c0.8,0,1.6,0,2.3,0c5.6,0.2,10.9,0.4,16,0.7c5.1,0.3,9.9,0.6,14.4,0.9c4.4,0.3,8.5,0.7,12.1,1c3.6,0.3,6.8,0.7,9.4,1
	c5.2,0.6,8.2,1,8.2,1s-3,0.4-8.2,1c-2.6,0.3-5.7,0.6-9.4,1c-3.6,0.3-7.7,0.7-12.1,1c-4.4,0.4-9.3,0.6-14.4,0.9
	c-5.1,0.3-10.5,0.5-16,0.7c-0.7,0-1.3,0.1-1.9,0.1c-0.6,0-1.2,0.1-1.8,0.1c-0.6,0.1-1.2,0.2-1.8,0.3c-0.6,0.1-1.2,0.2-1.8,0.4
	c-1.2,0.4-2.4,0.6-3.5,1.1l-1.7,0.7l-1.7,0.8c-4.5,2.2-8.5,5.6-11.6,9.6c-0.4,0.5-0.7,1-1.1,1.6c-0.3,0.5-0.7,1.1-1,1.6
	c-0.6,1.2-1.3,2.2-1.7,3.5l-0.7,1.8l-0.6,1.9l-0.3,0.9c-0.1,0.3-0.1,0.6-0.2,0.9l-0.4,1.8c-0.1,0.3-0.1,0.6-0.1,1l-0.1,1.1l-0.2,2
	c-0.1,1.4-0.1,2.9-0.2,4.3c-0.1,2.9-0.2,5.7-0.3,8.5c-0.2,5.6-0.5,10.9-0.7,16c-0.3,5.1-0.5,9.9-0.8,14.4c-0.3,4.4-0.5,8.5-0.7,12.1
	c-0.3,3.6-0.5,6.8-0.6,9.4c-0.2,2.6-0.3,4.6-0.4,6C443,246.3,443,247,443,247z"/>
<path class="st5" d="M746.3,247c0,0-0.1-0.7-0.2-2.1c-0.1-1.4-0.3-3.4-0.4-6c-0.2-2.6-0.4-5.7-0.6-9.4c-0.2-3.6-0.5-7.7-0.7-12.1
	c-0.2-4.4-0.5-9.3-0.8-14.4c-0.2-5.1-0.5-10.5-0.7-16c-0.1-2.8-0.2-5.6-0.3-8.5c-0.1-1.4-0.1-2.9-0.2-4.3l0-0.3l0-0.5l0-0.5l0-1.1
	l0-1.1c0-0.4,0-0.7,0.1-1.2l0.3-2.6c0.1-0.4,0.1-0.9,0.2-1.3l0.3-1.2l0.5-2.4l0.8-2.4c0.5-1.6,1.2-3.1,1.9-4.6
	c0.4-0.8,0.8-1.5,1.2-2.2c0.4-0.7,0.8-1.5,1.3-2.2c3.8-5.6,8.9-10.3,15-13.1c0.8-0.4,1.5-0.7,2.3-1.1c0.8-0.3,1.6-0.6,2.3-0.8
	l1.2-0.4c0.4-0.1,0.8-0.2,1.2-0.3c0.8-0.2,1.6-0.4,2.4-0.6c0.8-0.2,1.6-0.2,2.4-0.4c0.8-0.1,1.6-0.2,2.4-0.3c0.8,0,1.6,0,2.4-0.1
	c0.8,0,1.6,0,2.3,0c5.6,0.2,10.9,0.4,16,0.7c5.1,0.3,9.9,0.6,14.4,0.9c4.4,0.3,8.5,0.7,12.1,1c3.6,0.3,6.8,0.7,9.4,1
	c5.2,0.6,8.2,1,8.2,1s-3,0.4-8.2,1c-2.6,0.3-5.7,0.6-9.4,1c-3.6,0.3-7.7,0.7-12.1,1c-4.4,0.4-9.3,0.6-14.4,0.9
	c-5.1,0.3-10.5,0.5-16,0.7c-0.7,0-1.3,0.1-1.9,0.1c-0.6,0-1.2,0.1-1.8,0.1c-0.6,0.1-1.2,0.2-1.8,0.3c-0.6,0.1-1.2,0.2-1.8,0.4
	c-1.2,0.4-2.4,0.6-3.5,1.1l-1.7,0.7l-1.7,0.8c-4.5,2.2-8.5,5.6-11.6,9.6c-0.4,0.5-0.7,1-1.1,1.6c-0.3,0.5-0.7,1.1-1,1.6
	c-0.6,1.2-1.3,2.2-1.7,3.5l-0.7,1.8l-0.6,1.9l-0.3,0.9c-0.1,0.3-0.1,0.6-0.2,0.9l-0.4,1.8c-0.1,0.3-0.1,0.6-0.1,1l-0.1,1.1l-0.2,2
	c-0.1,1.4-0.1,2.9-0.2,4.3c-0.1,2.9-0.2,5.7-0.3,8.5c-0.2,5.6-0.5,10.9-0.7,16c-0.3,5.1-0.5,9.9-0.8,14.4c-0.3,4.4-0.5,8.5-0.7,12.1
	c-0.3,3.6-0.5,6.8-0.6,9.4c-0.2,2.6-0.3,4.6-0.4,6C746.4,246.3,746.3,247,746.3,247z"/>
<path class="st5" d="M1047.6,247c0,0-0.1-0.7-0.2-2.1c-0.1-1.4-0.3-3.4-0.4-6c-0.2-2.6-0.4-5.7-0.6-9.4c-0.2-3.6-0.5-7.7-0.7-12.1
	c-0.2-4.4-0.5-9.3-0.8-14.4c-0.2-5.1-0.5-10.5-0.7-16c-0.1-2.8-0.2-5.6-0.3-8.5c-0.1-1.4-0.1-2.9-0.2-4.3l0-0.3l0-0.5l0-0.5l0-1.1
	l0-1.1c0-0.4,0-0.7,0.1-1.2l0.3-2.6c0.1-0.4,0.1-0.9,0.2-1.3l0.3-1.2l0.5-2.4l0.8-2.4c0.5-1.6,1.2-3.1,1.9-4.6
	c0.4-0.8,0.8-1.5,1.2-2.2c0.4-0.7,0.8-1.5,1.3-2.2c3.8-5.6,8.9-10.3,15-13.1c0.8-0.4,1.5-0.7,2.3-1.1c0.8-0.3,1.6-0.6,2.3-0.8
	l1.2-0.4c0.4-0.1,0.8-0.2,1.2-0.3c0.8-0.2,1.6-0.4,2.4-0.6c0.8-0.2,1.6-0.2,2.4-0.4c0.8-0.1,1.6-0.2,2.4-0.3c0.8,0,1.6,0,2.4-0.1
	c0.8,0,1.6,0,2.3,0c5.6,0.2,10.9,0.4,16,0.7c5.1,0.3,9.9,0.6,14.4,0.9c4.4,0.3,8.5,0.7,12.1,1c3.6,0.3,6.8,0.7,9.4,1
	c5.2,0.6,8.2,1,8.2,1s-3,0.4-8.2,1c-2.6,0.3-5.7,0.6-9.4,1c-3.6,0.3-7.7,0.7-12.1,1c-4.4,0.4-9.3,0.6-14.4,0.9
	c-5.1,0.3-10.5,0.5-16,0.7c-0.7,0-1.3,0.1-1.9,0.1c-0.6,0-1.2,0.1-1.8,0.1c-0.6,0.1-1.2,0.2-1.8,0.3c-0.6,0.1-1.2,0.2-1.8,0.4
	c-1.2,0.4-2.4,0.6-3.5,1.1l-1.7,0.7l-1.7,0.8c-4.5,2.2-8.5,5.6-11.6,9.6c-0.4,0.5-0.7,1-1.1,1.6c-0.3,0.5-0.7,1.1-1,1.6
	c-0.6,1.2-1.3,2.2-1.7,3.5l-0.7,1.8l-0.6,1.9l-0.3,0.9c-0.1,0.3-0.1,0.6-0.2,0.9l-0.4,1.8c-0.1,0.3-0.1,0.6-0.1,1l-0.1,1.1l-0.2,2
	c-0.1,1.4-0.1,2.9-0.2,4.3c-0.1,2.9-0.2,5.7-0.3,8.5c-0.2,5.6-0.5,10.9-0.7,16c-0.3,5.1-0.5,9.9-0.8,14.4c-0.3,4.4-0.5,8.5-0.7,12.1
	c-0.3,3.6-0.5,6.8-0.6,9.4c-0.2,2.6-0.3,4.6-0.4,6C1047.7,246.3,1047.6,247,1047.6,247z"/>
<path class="st5" d="M1047.6,551c0,0-0.1-0.7-0.2-2.1c-0.1-1.4-0.3-3.4-0.4-6c-0.2-2.6-0.4-5.7-0.6-9.4c-0.2-3.6-0.5-7.7-0.7-12.1
	c-0.2-4.4-0.5-9.3-0.8-14.4c-0.2-5.1-0.5-10.5-0.7-16c-0.1-2.8-0.2-5.6-0.3-8.5c-0.1-1.4-0.1-2.9-0.2-4.3l0-0.3l0-0.5l0-0.5l0-1.1
	l0-1.1c0-0.4,0-0.7,0.1-1.2l0.3-2.6c0.1-0.4,0.1-0.9,0.2-1.3l0.3-1.2l0.5-2.4l0.8-2.4c0.5-1.6,1.2-3.1,1.9-4.6
	c0.4-0.8,0.8-1.5,1.2-2.2c0.4-0.7,0.8-1.5,1.3-2.2c3.8-5.6,8.9-10.3,15-13.1c0.8-0.4,1.5-0.7,2.3-1.1c0.8-0.3,1.6-0.6,2.3-0.8
	l1.2-0.4c0.4-0.1,0.8-0.2,1.2-0.3c0.8-0.2,1.6-0.4,2.4-0.6c0.8-0.2,1.6-0.2,2.4-0.4c0.8-0.1,1.6-0.2,2.4-0.3c0.8,0,1.6,0,2.4-0.1
	c0.8,0,1.6,0,2.3,0c5.6,0.2,10.9,0.4,16,0.7c5.1,0.3,9.9,0.6,14.4,0.9c4.4,0.3,8.5,0.7,12.1,1c3.6,0.3,6.8,0.7,9.4,1
	c5.2,0.6,8.2,1,8.2,1s-3,0.4-8.2,1c-2.6,0.3-5.7,0.6-9.4,1c-3.6,0.3-7.7,0.7-12.1,1c-4.4,0.4-9.3,0.6-14.4,0.9
	c-5.1,0.3-10.5,0.5-16,0.7c-0.7,0-1.3,0.1-1.9,0.1c-0.6,0-1.2,0.1-1.8,0.1c-0.6,0.1-1.2,0.2-1.8,0.3c-0.6,0.1-1.2,0.2-1.8,0.4
	c-1.2,0.4-2.4,0.6-3.5,1.1l-1.7,0.7l-1.7,0.8c-4.5,2.2-8.5,5.6-11.6,9.6c-0.4,0.5-0.7,1-1.1,1.6c-0.3,0.5-0.7,1.1-1,1.6
	c-0.6,1.2-1.3,2.2-1.7,3.5l-0.7,1.8l-0.6,1.9l-0.3,0.9c-0.1,0.3-0.1,0.6-0.2,0.9l-0.4,1.8c-0.1,0.3-0.1,0.6-0.1,1l-0.1,1.1l-0.2,2
	c-0.1,1.4-0.1,2.9-0.2,4.3c-0.1,2.9-0.2,5.7-0.3,8.5c-0.2,5.6-0.5,10.9-0.7,16c-0.3,5.1-0.5,9.9-0.8,14.4c-0.3,4.4-0.5,8.5-0.7,12.1
	c-0.3,3.6-0.5,6.8-0.6,9.4c-0.2,2.6-0.3,4.6-0.4,6C1047.7,550.3,1047.6,551,1047.6,551z"/>
<path class="st5" d="M1047.6,855c0,0-0.1-0.7-0.2-2.1c-0.1-1.4-0.3-3.4-0.4-6c-0.2-2.6-0.4-5.7-0.6-9.4c-0.2-3.6-0.5-7.7-0.7-12.1
	c-0.2-4.4-0.5-9.3-0.8-14.4c-0.2-5.1-0.5-10.5-0.7-16c-0.1-2.8-0.2-5.6-0.3-8.5c-0.1-1.4-0.1-2.9-0.2-4.3l0-0.3l0-0.5l0-0.5l0-1.1
	l0-1.1c0-0.4,0-0.7,0.1-1.2l0.3-2.6c0.1-0.4,0.1-0.9,0.2-1.3l0.3-1.2l0.5-2.4l0.8-2.4c0.5-1.6,1.2-3.1,1.9-4.6
	c0.4-0.8,0.8-1.5,1.2-2.2c0.4-0.7,0.8-1.5,1.3-2.2c3.8-5.6,8.9-10.3,15-13.1c0.8-0.4,1.5-0.7,2.3-1.1c0.8-0.3,1.6-0.6,2.3-0.8
	l1.2-0.4c0.4-0.1,0.8-0.2,1.2-0.3c0.8-0.2,1.6-0.4,2.4-0.6c0.8-0.2,1.6-0.2,2.4-0.4c0.8-0.1,1.6-0.2,2.4-0.3c0.8,0,1.6,0,2.4-0.1
	c0.8,0,1.6,0,2.3,0c5.6,0.2,10.9,0.4,16,0.7c5.1,0.3,9.9,0.6,14.4,0.9c4.4,0.3,8.5,0.7,12.1,1c3.6,0.3,6.8,0.7,9.4,1
	c5.2,0.6,8.2,1,8.2,1s-3,0.4-8.2,1c-2.6,0.3-5.7,0.6-9.4,1c-3.6,0.3-7.7,0.7-12.1,1c-4.4,0.4-9.3,0.6-14.4,0.9
	c-5.1,0.3-10.5,0.5-16,0.7c-0.7,0-1.3,0.1-1.9,0.1c-0.6,0-1.2,0.1-1.8,0.1c-0.6,0.1-1.2,0.2-1.8,0.3c-0.6,0.1-1.2,0.2-1.8,0.4
	c-1.2,0.4-2.4,0.6-3.5,1.1l-1.7,0.7l-1.7,0.8c-4.5,2.2-8.5,5.6-11.6,9.6c-0.4,0.5-0.7,1-1.1,1.6c-0.3,0.5-0.7,1.1-1,1.6
	c-0.6,1.2-1.3,2.2-1.7,3.5l-0.7,1.8l-0.6,1.9l-0.3,0.9c-0.1,0.3-0.1,0.6-0.2,0.9l-0.4,1.8c-0.1,0.3-0.1,0.6-0.1,1l-0.1,1.1l-0.2,2
	c-0.1,1.4-0.1,2.9-0.2,4.3c-0.1,2.9-0.2,5.7-0.3,8.5c-0.2,5.6-0.5,10.9-0.7,16c-0.3,5.1-0.5,9.9-0.8,14.4c-0.3,4.4-0.5,8.5-0.7,12.1
	c-0.3,3.6-0.5,6.8-0.6,9.4c-0.2,2.6-0.3,4.6-0.4,6C1047.7,854.3,1047.6,855,1047.6,855z"/>
<path class="st5" d="M1047.6,1159c0,0-0.1-0.7-0.2-2.1c-0.1-1.4-0.3-3.4-0.4-6c-0.2-2.6-0.4-5.7-0.6-9.4c-0.2-3.6-0.5-7.7-0.7-12.1
	c-0.2-4.4-0.5-9.3-0.8-14.4c-0.2-5.1-0.5-10.5-0.7-16c-0.1-2.8-0.2-5.6-0.3-8.5c-0.1-1.4-0.1-2.9-0.2-4.3l0-0.3l0-0.5l0-0.5l0-1.1
	l0-1.1c0-0.4,0-0.7,0.1-1.2l0.3-2.6c0.1-0.4,0.1-0.9,0.2-1.3l0.3-1.2l0.5-2.4l0.8-2.4c0.5-1.6,1.2-3.1,1.9-4.6
	c0.4-0.8,0.8-1.5,1.2-2.2c0.4-0.7,0.8-1.5,1.3-2.2c3.8-5.6,8.9-10.3,15-13.1c0.8-0.4,1.5-0.7,2.3-1.1c0.8-0.3,1.6-0.6,2.3-0.8
	l1.2-0.4c0.4-0.1,0.8-0.2,1.2-0.3c0.8-0.2,1.6-0.4,2.4-0.6c0.8-0.2,1.6-0.2,2.4-0.4c0.8-0.1,1.6-0.2,2.4-0.3c0.8,0,1.6,0,2.4-0.1
	c0.8,0,1.6,0,2.3,0c5.6,0.2,10.9,0.4,16,0.7c5.1,0.3,9.9,0.6,14.4,0.9c4.4,0.3,8.5,0.7,12.1,1c3.6,0.3,6.8,0.7,9.4,1
	c5.2,0.6,8.2,1,8.2,1s-3,0.4-8.2,1c-2.6,0.3-5.7,0.6-9.4,1c-3.6,0.3-7.7,0.7-12.1,1c-4.4,0.4-9.3,0.6-14.4,0.9
	c-5.1,0.3-10.5,0.5-16,0.7c-0.7,0-1.3,0.1-1.9,0.1c-0.6,0-1.2,0.1-1.8,0.1c-0.6,0.1-1.2,0.2-1.8,0.3c-0.6,0.1-1.2,0.2-1.8,0.4
	c-1.2,0.4-2.4,0.6-3.5,1.1l-1.7,0.7l-1.7,0.8c-4.5,2.2-8.5,5.6-11.6,9.6c-0.4,0.5-0.7,1-1.1,1.6c-0.3,0.5-0.7,1.1-1,1.6
	c-0.6,1.2-1.3,2.2-1.7,3.5l-0.7,1.8l-0.6,1.9l-0.3,0.9c-0.1,0.3-0.1,0.6-0.2,0.9l-0.4,1.8c-0.1,0.3-0.1,0.6-0.1,1l-0.1,1.1l-0.2,2
	c-0.1,1.4-0.1,2.9-0.2,4.3c-0.1,2.9-0.2,5.7-0.3,8.5c-0.2,5.6-0.5,10.9-0.7,16c-0.3,5.1-0.5,9.9-0.8,14.4c-0.3,4.4-0.5,8.5-0.7,12.1
	c-0.3,3.6-0.5,6.8-0.6,9.4c-0.2,2.6-0.3,4.6-0.4,6C1047.7,1158.3,1047.6,1159,1047.6,1159z"/>
<path class="st5" d="M746.3,551c0,0-0.1-0.7-0.2-2.1c-0.1-1.4-0.3-3.4-0.4-6c-0.2-2.6-0.4-5.7-0.6-9.4c-0.2-3.6-0.5-7.7-0.7-12.1
	c-0.2-4.4-0.5-9.3-0.8-14.4c-0.2-5.1-0.5-10.5-0.7-16c-0.1-2.8-0.2-5.6-0.3-8.5c-0.1-1.4-0.1-2.9-0.2-4.3l0-0.3l0-0.5l0-0.5l0-1.1
	l0-1.1c0-0.4,0-0.7,0.1-1.2l0.3-2.6c0.1-0.4,0.1-0.9,0.2-1.3l0.3-1.2l0.5-2.4l0.8-2.4c0.5-1.6,1.2-3.1,1.9-4.6
	c0.4-0.8,0.8-1.5,1.2-2.2c0.4-0.7,0.8-1.5,1.3-2.2c3.8-5.6,8.9-10.3,15-13.1c0.8-0.4,1.5-0.7,2.3-1.1c0.8-0.3,1.6-0.6,2.3-0.8
	l1.2-0.4c0.4-0.1,0.8-0.2,1.2-0.3c0.8-0.2,1.6-0.4,2.4-0.6c0.8-0.2,1.6-0.2,2.4-0.4c0.8-0.1,1.6-0.2,2.4-0.3c0.8,0,1.6,0,2.4-0.1
	c0.8,0,1.6,0,2.3,0c5.6,0.2,10.9,0.4,16,0.7c5.1,0.3,9.9,0.6,14.4,0.9c4.4,0.3,8.5,0.7,12.1,1c3.6,0.3,6.8,0.7,9.4,1
	c5.2,0.6,8.2,1,8.2,1s-3,0.4-8.2,1c-2.6,0.3-5.7,0.6-9.4,1c-3.6,0.3-7.7,0.7-12.1,1c-4.4,0.4-9.3,0.6-14.4,0.9
	c-5.1,0.3-10.5,0.5-16,0.7c-0.7,0-1.3,0.1-1.9,0.1c-0.6,0-1.2,0.1-1.8,0.1c-0.6,0.1-1.2,0.2-1.8,0.3c-0.6,0.1-1.2,0.2-1.8,0.4
	c-1.2,0.4-2.4,0.6-3.5,1.1l-1.7,0.7l-1.7,0.8c-4.5,2.2-8.5,5.6-11.6,9.6c-0.4,0.5-0.7,1-1.1,1.6c-0.3,0.5-0.7,1.1-1,1.6
	c-0.6,1.2-1.3,2.2-1.7,3.5l-0.7,1.8l-0.6,1.9l-0.3,0.9c-0.1,0.3-0.1,0.6-0.2,0.9l-0.4,1.8c-0.1,0.3-0.1,0.6-0.1,1l-0.1,1.1l-0.2,2
	c-0.1,1.4-0.1,2.9-0.2,4.3c-0.1,2.9-0.2,5.7-0.3,8.5c-0.2,5.6-0.5,10.9-0.7,16c-0.3,5.1-0.5,9.9-0.8,14.4c-0.3,4.4-0.5,8.5-0.7,12.1
	c-0.3,3.6-0.5,6.8-0.6,9.4c-0.2,2.6-0.3,4.6-0.4,6C746.3,550.3,746.3,551,746.3,551z"/>
<path class="st5" d="M746.3,855c0,0-0.1-0.7-0.2-2.1c-0.1-1.4-0.3-3.4-0.4-6c-0.2-2.6-0.4-5.7-0.6-9.4c-0.2-3.6-0.5-7.7-0.7-12.1
	c-0.2-4.4-0.5-9.3-0.8-14.4c-0.2-5.1-0.5-10.5-0.7-16c-0.1-2.8-0.2-5.6-0.3-8.5c-0.1-1.4-0.1-2.9-0.2-4.3l0-0.3l0-0.5l0-0.5l0-1.1
	l0-1.1c0-0.4,0-0.7,0.1-1.2l0.3-2.6c0.1-0.4,0.1-0.9,0.2-1.3l0.3-1.2l0.5-2.4l0.8-2.4c0.5-1.6,1.2-3.1,1.9-4.6
	c0.4-0.8,0.8-1.5,1.2-2.2c0.4-0.7,0.8-1.5,1.3-2.2c3.8-5.6,8.9-10.3,15-13.1c0.8-0.4,1.5-0.7,2.3-1.1c0.8-0.3,1.6-0.6,2.3-0.8
	l1.2-0.4c0.4-0.1,0.8-0.2,1.2-0.3c0.8-0.2,1.6-0.4,2.4-0.6c0.8-0.2,1.6-0.2,2.4-0.4c0.8-0.1,1.6-0.2,2.4-0.3c0.8,0,1.6,0,2.4-0.1
	c0.8,0,1.6,0,2.3,0c5.6,0.2,10.9,0.4,16,0.7c5.1,0.3,9.9,0.6,14.4,0.9c4.4,0.3,8.5,0.7,12.1,1c3.6,0.3,6.8,0.7,9.4,1
	c5.2,0.6,8.2,1,8.2,1s-3,0.4-8.2,1c-2.6,0.3-5.7,0.6-9.4,1c-3.6,0.3-7.7,0.7-12.1,1c-4.4,0.4-9.3,0.6-14.4,0.9
	c-5.1,0.3-10.5,0.5-16,0.7c-0.7,0-1.3,0.1-1.9,0.1c-0.6,0-1.2,0.1-1.8,0.1c-0.6,0.1-1.2,0.2-1.8,0.3c-0.6,0.1-1.2,0.2-1.8,0.4
	c-1.2,0.4-2.4,0.6-3.5,1.1l-1.7,0.7l-1.7,0.8c-4.5,2.2-8.5,5.6-11.6,9.6c-0.4,0.5-0.7,1-1.1,1.6c-0.3,0.5-0.7,1.1-1,1.6
	c-0.6,1.2-1.3,2.2-1.7,3.5l-0.7,1.8l-0.6,1.9l-0.3,0.9c-0.1,0.3-0.1,0.6-0.2,0.9l-0.4,1.8c-0.1,0.3-0.1,0.6-0.1,1l-0.1,1.1l-0.2,2
	c-0.1,1.4-0.1,2.9-0.2,4.3c-0.1,2.9-0.2,5.7-0.3,8.5c-0.2,5.6-0.5,10.9-0.7,16c-0.3,5.1-0.5,9.9-0.8,14.4c-0.3,4.4-0.5,8.5-0.7,12.1
	c-0.3,3.6-0.5,6.8-0.6,9.4c-0.2,2.6-0.3,4.6-0.4,6C746.3,854.3,746.3,855,746.3,855z"/>
<path class="st5" d="M746.3,1159c0,0-0.1-0.7-0.2-2.1c-0.1-1.4-0.3-3.4-0.4-6c-0.2-2.6-0.4-5.7-0.6-9.4c-0.2-3.6-0.5-7.7-0.7-12.1
	c-0.2-4.4-0.5-9.3-0.8-14.4c-0.2-5.1-0.5-10.5-0.7-16c-0.1-2.8-0.2-5.6-0.3-8.5c-0.1-1.4-0.1-2.9-0.2-4.3l0-0.3l0-0.5l0-0.5l0-1.1
	l0-1.1c0-0.4,0-0.7,0.1-1.2l0.3-2.6c0.1-0.4,0.1-0.9,0.2-1.3l0.3-1.2l0.5-2.4l0.8-2.4c0.5-1.6,1.2-3.1,1.9-4.6
	c0.4-0.8,0.8-1.5,1.2-2.2c0.4-0.7,0.8-1.5,1.3-2.2c3.8-5.6,8.9-10.3,15-13.1c0.8-0.4,1.5-0.7,2.3-1.1c0.8-0.3,1.6-0.6,2.3-0.8
	l1.2-0.4c0.4-0.1,0.8-0.2,1.2-0.3c0.8-0.2,1.6-0.4,2.4-0.6c0.8-0.2,1.6-0.2,2.4-0.4c0.8-0.1,1.6-0.2,2.4-0.3c0.8,0,1.6,0,2.4-0.1
	c0.8,0,1.6,0,2.3,0c5.6,0.2,10.9,0.4,16,0.7c5.1,0.3,9.9,0.6,14.4,0.9c4.4,0.3,8.5,0.7,12.1,1c3.6,0.3,6.8,0.7,9.4,1
	c5.2,0.6,8.2,1,8.2,1s-3,0.4-8.2,1c-2.6,0.3-5.7,0.6-9.4,1c-3.6,0.3-7.7,0.7-12.1,1c-4.4,0.4-9.3,0.6-14.4,0.9
	c-5.1,0.3-10.5,0.5-16,0.7c-0.7,0-1.3,0.1-1.9,0.1c-0.6,0-1.2,0.1-1.8,0.1c-0.6,0.1-1.2,0.2-1.8,0.3c-0.6,0.1-1.2,0.2-1.8,0.4
	c-1.2,0.4-2.4,0.6-3.5,1.1l-1.7,0.7l-1.7,0.8c-4.5,2.2-8.5,5.6-11.6,9.6c-0.4,0.5-0.7,1-1.1,1.6c-0.3,0.5-0.7,1.1-1,1.6
	c-0.6,1.2-1.3,2.2-1.7,3.5l-0.7,1.8l-0.6,1.9l-0.3,0.9c-0.1,0.3-0.1,0.6-0.2,0.9l-0.4,1.8c-0.1,0.3-0.1,0.6-0.1,1l-0.1,1.1l-0.2,2
	c-0.1,1.4-0.1,2.9-0.2,4.3c-0.1,2.9-0.2,5.7-0.3,8.5c-0.2,5.6-0.5,10.9-0.7,16c-0.3,5.1-0.5,9.9-0.8,14.4c-0.3,4.4-0.5,8.5-0.7,12.1
	c-0.3,3.6-0.5,6.8-0.6,9.4c-0.2,2.6-0.3,4.6-0.4,6C746.3,1158.3,746.3,1159,746.3,1159z"/>
<path class="st5" d="M442.9,551c0,0-0.1-0.7-0.2-2.1c-0.1-1.4-0.3-3.4-0.4-6c-0.2-2.6-0.4-5.7-0.6-9.4c-0.2-3.6-0.5-7.7-0.7-12.1
	c-0.2-4.4-0.5-9.3-0.8-14.4c-0.2-5.1-0.5-10.5-0.7-16c-0.1-2.8-0.2-5.6-0.3-8.5c-0.1-1.4-0.1-2.9-0.2-4.3l0-0.3l0-0.5l0-0.5l0-1.1
	l0-1.1c0-0.4,0-0.7,0.1-1.2l0.3-2.6c0.1-0.4,0.1-0.9,0.2-1.3l0.3-1.2l0.5-2.4l0.8-2.4c0.5-1.6,1.2-3.1,1.9-4.6
	c0.4-0.8,0.8-1.5,1.2-2.2c0.4-0.7,0.8-1.5,1.3-2.2c3.8-5.6,8.9-10.3,15-13.1c0.8-0.4,1.5-0.7,2.3-1.1c0.8-0.3,1.6-0.6,2.3-0.8
	l1.2-0.4c0.4-0.1,0.8-0.2,1.2-0.3c0.8-0.2,1.6-0.4,2.4-0.6c0.8-0.2,1.6-0.2,2.4-0.4c0.8-0.1,1.6-0.2,2.4-0.3c0.8,0,1.6,0,2.4-0.1
	c0.8,0,1.6,0,2.3,0c5.6,0.2,10.9,0.4,16,0.7c5.1,0.3,9.9,0.6,14.4,0.9c4.4,0.3,8.5,0.7,12.1,1c3.6,0.3,6.8,0.7,9.4,1
	c5.2,0.6,8.2,1,8.2,1s-3,0.4-8.2,1c-2.6,0.3-5.7,0.6-9.4,1c-3.6,0.3-7.7,0.7-12.1,1c-4.4,0.4-9.3,0.6-14.4,0.9
	c-5.1,0.3-10.5,0.5-16,0.7c-0.7,0-1.3,0.1-1.9,0.1c-0.6,0-1.2,0.1-1.8,0.1c-0.6,0.1-1.2,0.2-1.8,0.3c-0.6,0.1-1.2,0.2-1.8,0.4
	c-1.2,0.4-2.4,0.6-3.5,1.1l-1.7,0.7l-1.7,0.8c-4.5,2.2-8.5,5.6-11.6,9.6c-0.4,0.5-0.7,1-1.1,1.6c-0.3,0.5-0.7,1.1-1,1.6
	c-0.6,1.2-1.3,2.2-1.7,3.5l-0.7,1.8l-0.6,1.9l-0.3,0.9c-0.1,0.3-0.1,0.6-0.2,0.9l-0.4,1.8c-0.1,0.3-0.1,0.6-0.1,1l-0.1,1.1l-0.2,2
	c-0.1,1.4-0.1,2.9-0.2,4.3c-0.1,2.9-0.2,5.7-0.3,8.5c-0.2,5.6-0.5,10.9-0.7,16c-0.3,5.1-0.5,9.9-0.8,14.4c-0.3,4.4-0.5,8.5-0.7,12.1
	c-0.3,3.6-0.5,6.8-0.6,9.4c-0.2,2.6-0.3,4.6-0.4,6C443,550.3,442.9,551,442.9,551z"/>
<path class="st5" d="M442.9,855c0,0-0.1-0.7-0.2-2.1c-0.1-1.4-0.3-3.4-0.4-6c-0.2-2.6-0.4-5.7-0.6-9.4c-0.2-3.6-0.5-7.7-0.7-12.1
	c-0.2-4.4-0.5-9.3-0.8-14.4c-0.2-5.1-0.5-10.5-0.7-16c-0.1-2.8-0.2-5.6-0.3-8.5c-0.1-1.4-0.1-2.9-0.2-4.3l0-0.3l0-0.5l0-0.5l0-1.1
	l0-1.1c0-0.4,0-0.7,0.1-1.2l0.3-2.6c0.1-0.4,0.1-0.9,0.2-1.3l0.3-1.2l0.5-2.4l0.8-2.4c0.5-1.6,1.2-3.1,1.9-4.6
	c0.4-0.8,0.8-1.5,1.2-2.2c0.4-0.7,0.8-1.5,1.3-2.2c3.8-5.6,8.9-10.3,15-13.1c0.8-0.4,1.5-0.7,2.3-1.1c0.8-0.3,1.6-0.6,2.3-0.8
	l1.2-0.4c0.4-0.1,0.8-0.2,1.2-0.3c0.8-0.2,1.6-0.4,2.4-0.6c0.8-0.2,1.6-0.2,2.4-0.4c0.8-0.1,1.6-0.2,2.4-0.3c0.8,0,1.6,0,2.4-0.1
	c0.8,0,1.6,0,2.3,0c5.6,0.2,10.9,0.4,16,0.7c5.1,0.3,9.9,0.6,14.4,0.9c4.4,0.3,8.5,0.7,12.1,1c3.6,0.3,6.8,0.7,9.4,1
	c5.2,0.6,8.2,1,8.2,1s-3,0.4-8.2,1c-2.6,0.3-5.7,0.6-9.4,1c-3.6,0.3-7.7,0.7-12.1,1c-4.4,0.4-9.3,0.6-14.4,0.9
	c-5.1,0.3-10.5,0.5-16,0.7c-0.7,0-1.3,0.1-1.9,0.1c-0.6,0-1.2,0.1-1.8,0.1c-0.6,0.1-1.2,0.2-1.8,0.3c-0.6,0.1-1.2,0.2-1.8,0.4
	c-1.2,0.4-2.4,0.6-3.5,1.1l-1.7,0.7l-1.7,0.8c-4.5,2.2-8.5,5.6-11.6,9.6c-0.4,0.5-0.7,1-1.1,1.6c-0.3,0.5-0.7,1.1-1,1.6
	c-0.6,1.2-1.3,2.2-1.7,3.5l-0.7,1.8l-0.6,1.9l-0.3,0.9c-0.1,0.3-0.1,0.6-0.2,0.9l-0.4,1.8c-0.1,0.3-0.1,0.6-0.1,1l-0.1,1.1l-0.2,2
	c-0.1,1.4-0.1,2.9-0.2,4.3c-0.1,2.9-0.2,5.7-0.3,8.5c-0.2,5.6-0.5,10.9-0.7,16c-0.3,5.1-0.5,9.9-0.8,14.4c-0.3,4.4-0.5,8.5-0.7,12.1
	c-0.3,3.6-0.5,6.8-0.6,9.4c-0.2,2.6-0.3,4.6-0.4,6C443,854.3,442.9,855,442.9,855z"/>
<path class="st5" d="M442.9,1159c0,0-0.1-0.7-0.2-2.1c-0.1-1.4-0.3-3.4-0.4-6c-0.2-2.6-0.4-5.7-0.6-9.4c-0.2-3.6-0.5-7.7-0.7-12.1
	c-0.2-4.4-0.5-9.3-0.8-14.4c-0.2-5.1-0.5-10.5-0.7-16c-0.1-2.8-0.2-5.6-0.3-8.5c-0.1-1.4-0.1-2.9-0.2-4.3l0-0.3l0-0.5l0-0.5l0-1.1
	l0-1.1c0-0.4,0-0.7,0.1-1.2l0.3-2.6c0.1-0.4,0.1-0.9,0.2-1.3l0.3-1.2l0.5-2.4l0.8-2.4c0.5-1.6,1.2-3.1,1.9-4.6
	c0.4-0.8,0.8-1.5,1.2-2.2c0.4-0.7,0.8-1.5,1.3-2.2c3.8-5.6,8.9-10.3,15-13.1c0.8-0.4,1.5-0.7,2.3-1.1c0.8-0.3,1.6-0.6,2.3-0.8
	l1.2-0.4c0.4-0.1,0.8-0.2,1.2-0.3c0.8-0.2,1.6-0.4,2.4-0.6c0.8-0.2,1.6-0.2,2.4-0.4c0.8-0.1,1.6-0.2,2.4-0.3c0.8,0,1.6,0,2.4-0.1
	c0.8,0,1.6,0,2.3,0c5.6,0.2,10.9,0.4,16,0.7c5.1,0.3,9.9,0.6,14.4,0.9c4.4,0.3,8.5,0.7,12.1,1c3.6,0.3,6.8,0.7,9.4,1
	c5.2,0.6,8.2,1,8.2,1s-3,0.4-8.2,1c-2.6,0.3-5.7,0.6-9.4,1c-3.6,0.3-7.7,0.7-12.1,1c-4.4,0.4-9.3,0.6-14.4,0.9
	c-5.1,0.3-10.5,0.5-16,0.7c-0.7,0-1.3,0.1-1.9,0.1c-0.6,0-1.2,0.1-1.8,0.1c-0.6,0.1-1.2,0.2-1.8,0.3c-0.6,0.1-1.2,0.2-1.8,0.4
	c-1.2,0.4-2.4,0.6-3.5,1.1l-1.7,0.7l-1.7,0.8c-4.5,2.2-8.5,5.6-11.6,9.6c-0.4,0.5-0.7,1-1.1,1.6c-0.3,0.5-0.7,1.1-1,1.6
	c-0.6,1.2-1.3,2.2-1.7,3.5l-0.7,1.8l-0.6,1.9l-0.3,0.9c-0.1,0.3-0.1,0.6-0.2,0.9l-0.4,1.8c-0.1,0.3-0.1,0.6-0.1,1l-0.1,1.1l-0.2,2
	c-0.1,1.4-0.1,2.9-0.2,4.3c-0.1,2.9-0.2,5.7-0.3,8.5c-0.2,5.6-0.5,10.9-0.7,16c-0.3,5.1-0.5,9.9-0.8,14.4c-0.3,4.4-0.5,8.5-0.7,12.1
	c-0.3,3.6-0.5,6.8-0.6,9.4c-0.2,2.6-0.3,4.6-0.4,6C443,1158.3,442.9,1159,442.9,1159z"/>
<path class="st5" d="M140.6,551c0,0-0.1-0.7-0.2-2.1c-0.1-1.4-0.3-3.4-0.4-6c-0.2-2.6-0.4-5.7-0.6-9.4c-0.2-3.6-0.5-7.7-0.7-12.1
	c-0.2-4.4-0.5-9.3-0.8-14.4c-0.2-5.1-0.5-10.5-0.7-16c-0.1-2.8-0.2-5.6-0.3-8.5c-0.1-1.4-0.1-2.9-0.2-4.3l0-0.3l0-0.5l0-0.5l0-1.1
	l0-1.1c0-0.4,0-0.7,0.1-1.2l0.3-2.6c0.1-0.4,0.1-0.9,0.2-1.3l0.3-1.2l0.5-2.4l0.8-2.4c0.5-1.6,1.2-3.1,1.9-4.6
	c0.4-0.8,0.8-1.5,1.2-2.2c0.4-0.7,0.8-1.5,1.3-2.2c3.8-5.6,8.9-10.3,15-13.1c0.8-0.4,1.5-0.7,2.3-1.1c0.8-0.3,1.6-0.6,2.3-0.8
	l1.2-0.4c0.4-0.1,0.8-0.2,1.2-0.3c0.8-0.2,1.6-0.4,2.4-0.6c0.8-0.2,1.6-0.2,2.4-0.4c0.8-0.1,1.6-0.2,2.4-0.3c0.8,0,1.6,0,2.4-0.1
	c0.8,0,1.6,0,2.3,0c5.6,0.2,10.9,0.4,16,0.7c5.1,0.3,9.9,0.6,14.4,0.9c4.4,0.3,8.5,0.7,12.1,1c3.6,0.3,6.8,0.7,9.4,1
	c5.2,0.6,8.2,1,8.2,1s-3,0.4-8.2,1c-2.6,0.3-5.7,0.6-9.4,1c-3.6,0.3-7.7,0.7-12.1,1c-4.4,0.4-9.3,0.6-14.4,0.9
	c-5.1,0.3-10.5,0.5-16,0.7c-0.7,0-1.3,0.1-1.9,0.1c-0.6,0-1.2,0.1-1.8,0.1c-0.6,0.1-1.2,0.2-1.8,0.3c-0.6,0.1-1.2,0.2-1.8,0.4
	c-1.2,0.4-2.4,0.6-3.5,1.1l-1.7,0.7l-1.7,0.8c-4.5,2.2-8.5,5.6-11.6,9.6c-0.4,0.5-0.7,1-1.1,1.6c-0.3,0.5-0.7,1.1-1,1.6
	c-0.6,1.2-1.3,2.2-1.7,3.5l-0.7,1.8l-0.6,1.9l-0.3,0.9c-0.1,0.3-0.1,0.6-0.2,0.9l-0.4,1.8c-0.1,0.3-0.1,0.6-0.1,1l-0.1,1.1l-0.2,2
	c-0.1,1.4-0.1,2.9-0.2,4.3c-0.1,2.9-0.2,5.7-0.3,8.5c-0.2,5.6-0.5,10.9-0.7,16c-0.3,5.1-0.5,9.9-0.8,14.4c-0.3,4.4-0.5,8.5-0.7,12.1
	c-0.3,3.6-0.5,6.8-0.6,9.4c-0.2,2.6-0.3,4.6-0.4,6C140.6,550.3,140.6,551,140.6,551z"/>
<path class="st5" d="M140.6,855c0,0-0.1-0.7-0.2-2.1c-0.1-1.4-0.3-3.4-0.4-6c-0.2-2.6-0.4-5.7-0.6-9.4c-0.2-3.6-0.5-7.7-0.7-12.1
	c-0.2-4.4-0.5-9.3-0.8-14.4c-0.2-5.1-0.5-10.5-0.7-16c-0.1-2.8-0.2-5.6-0.3-8.5c-0.1-1.4-0.1-2.9-0.2-4.3l0-0.3l0-0.5l0-0.5l0-1.1
	l0-1.1c0-0.4,0-0.7,0.1-1.2l0.3-2.6c0.1-0.4,0.1-0.9,0.2-1.3l0.3-1.2l0.5-2.4l0.8-2.4c0.5-1.6,1.2-3.1,1.9-4.6
	c0.4-0.8,0.8-1.5,1.2-2.2c0.4-0.7,0.8-1.5,1.3-2.2c3.8-5.6,8.9-10.3,15-13.1c0.8-0.4,1.5-0.7,2.3-1.1c0.8-0.3,1.6-0.6,2.3-0.8
	l1.2-0.4c0.4-0.1,0.8-0.2,1.2-0.3c0.8-0.2,1.6-0.4,2.4-0.6c0.8-0.2,1.6-0.2,2.4-0.4c0.8-0.1,1.6-0.2,2.4-0.3c0.8,0,1.6,0,2.4-0.1
	c0.8,0,1.6,0,2.3,0c5.6,0.2,10.9,0.4,16,0.7c5.1,0.3,9.9,0.6,14.4,0.9c4.4,0.3,8.5,0.7,12.1,1c3.6,0.3,6.8,0.7,9.4,1
	c5.2,0.6,8.2,1,8.2,1s-3,0.4-8.2,1c-2.6,0.3-5.7,0.6-9.4,1c-3.6,0.3-7.7,0.7-12.1,1c-4.4,0.4-9.3,0.6-14.4,0.9
	c-5.1,0.3-10.5,0.5-16,0.7c-0.7,0-1.3,0.1-1.9,0.1c-0.6,0-1.2,0.1-1.8,0.1c-0.6,0.1-1.2,0.2-1.8,0.3c-0.6,0.1-1.2,0.2-1.8,0.4
	c-1.2,0.4-2.4,0.6-3.5,1.1l-1.7,0.7l-1.7,0.8c-4.5,2.2-8.5,5.6-11.6,9.6c-0.4,0.5-0.7,1-1.1,1.6c-0.3,0.5-0.7,1.1-1,1.6
	c-0.6,1.2-1.3,2.2-1.7,3.5l-0.7,1.8l-0.6,1.9l-0.3,0.9c-0.1,0.3-0.1,0.6-0.2,0.9l-0.4,1.8c-0.1,0.3-0.1,0.6-0.1,1l-0.1,1.1l-0.2,2
	c-0.1,1.4-0.1,2.9-0.2,4.3c-0.1,2.9-0.2,5.7-0.3,8.5c-0.2,5.6-0.5,10.9-0.7,16c-0.3,5.1-0.5,9.9-0.8,14.4c-0.3,4.4-0.5,8.5-0.7,12.1
	c-0.3,3.6-0.5,6.8-0.6,9.4c-0.2,2.6-0.3,4.6-0.4,6C140.6,854.3,140.6,855,140.6,855z"/>
<path class="st5" d="M140.6,1159c0,0-0.1-0.7-0.2-2.1c-0.1-1.4-0.3-3.4-0.4-6c-0.2-2.6-0.4-5.7-0.6-9.4c-0.2-3.6-0.5-7.7-0.7-12.1
	c-0.2-4.4-0.5-9.3-0.8-14.4c-0.2-5.1-0.5-10.5-0.7-16c-0.1-2.8-0.2-5.6-0.3-8.5c-0.1-1.4-0.1-2.9-0.2-4.3l0-0.3l0-0.5l0-0.5l0-1.1
	l0-1.1c0-0.4,0-0.7,0.1-1.2l0.3-2.6c0.1-0.4,0.1-0.9,0.2-1.3l0.3-1.2l0.5-2.4l0.8-2.4c0.5-1.6,1.2-3.1,1.9-4.6
	c0.4-0.8,0.8-1.5,1.2-2.2c0.4-0.7,0.8-1.5,1.3-2.2c3.8-5.6,8.9-10.3,15-13.1c0.8-0.4,1.5-0.7,2.3-1.1c0.8-0.3,1.6-0.6,2.3-0.8
	l1.2-0.4c0.4-0.1,0.8-0.2,1.2-0.3c0.8-0.2,1.6-0.4,2.4-0.6c0.8-0.2,1.6-0.2,2.4-0.4c0.8-0.1,1.6-0.2,2.4-0.3c0.8,0,1.6,0,2.4-0.1
	c0.8,0,1.6,0,2.3,0c5.6,0.2,10.9,0.4,16,0.7c5.1,0.3,9.9,0.6,14.4,0.9c4.4,0.3,8.5,0.7,12.1,1c3.6,0.3,6.8,0.7,9.4,1
	c5.2,0.6,8.2,1,8.2,1s-3,0.4-8.2,1c-2.6,0.3-5.7,0.6-9.4,1c-3.6,0.3-7.7,0.7-12.1,1c-4.4,0.4-9.3,0.6-14.4,0.9
	c-5.1,0.3-10.5,0.5-16,0.7c-0.7,0-1.3,0.1-1.9,0.1c-0.6,0-1.2,0.1-1.8,0.1c-0.6,0.1-1.2,0.2-1.8,0.3c-0.6,0.1-1.2,0.2-1.8,0.4
	c-1.2,0.4-2.4,0.6-3.5,1.1l-1.7,0.7l-1.7,0.8c-4.5,2.2-8.5,5.6-11.6,9.6c-0.4,0.5-0.7,1-1.1,1.6c-0.3,0.5-0.7,1.1-1,1.6
	c-0.6,1.2-1.3,2.2-1.7,3.5l-0.7,1.8l-0.6,1.9l-0.3,0.9c-0.1,0.3-0.1,0.6-0.2,0.9l-0.4,1.8c-0.1,0.3-0.1,0.6-0.1,1l-0.1,1.1l-0.2,2
	c-0.1,1.4-0.1,2.9-0.2,4.3c-0.1,2.9-0.2,5.7-0.3,8.5c-0.2,5.6-0.5,10.9-0.7,16c-0.3,5.1-0.5,9.9-0.8,14.4c-0.3,4.4-0.5,8.5-0.7,12.1
	c-0.3,3.6-0.5,6.8-0.6,9.4c-0.2,2.6-0.3,4.6-0.4,6C140.6,1158.3,140.6,1159,140.6,1159z"/>
</svg>
